<svg width="25" height="24" viewBox="0 0 25 24" xmlns="http://www.w3.org/2000/svg">
<path fill-rule="evenodd" clip-rule="evenodd" fill="#000" d="M14.8029 3.03695C13.1803 3.27766 11.9254 4.29813 11.4473 5.76591L11.3704 6.00206L8.31322 6.00822L5.25609 6.01437V7.34705V8.67973L8.43474 8.68588L11.6134 8.69201L11.7252 8.90396C13.5681 12.3975 18.8413 11.2954 19.2288 7.33571C19.4664 4.90738 17.178 2.68462 14.8029 3.03695ZM15.7279 5.59632C17.082 6.06829 17.0639 8.00382 15.7013 8.44004C14.5916 8.79528 13.5081 7.77511 13.7967 6.64669C14.0108 5.80992 14.9207 5.31498 15.7279 5.59632ZM8.70893 12.0464C5.81334 12.4642 4.30014 15.7573 5.89141 18.1781C7.64868 20.8514 11.6524 20.5199 12.9155 17.5966L13.0202 17.3542L16.1347 17.3481L19.2492 17.3419V16.0095V14.677L16.134 14.6708L13.0189 14.6647L12.9274 14.4461C12.2454 12.8173 10.4489 11.7954 8.70893 12.0464ZM9.71697 14.5917C10.7733 14.9445 11.0888 16.2614 10.3073 17.0563C9.37042 18.0092 7.75895 17.3472 7.75895 16.0095C7.75895 14.9832 8.74695 14.2678 9.71697 14.5917Z"/>
</svg>
