<svg width="25" height="24" viewBox="0 0 25 24" fill="none" xmlns="http://www.w3.org/2000/svg">
<mask id="path-1-outside-1_3701_123071" maskUnits="userSpaceOnUse" x="0.75" y="0" width="24" height="24" fill="black">
<rect fill="white" x="0.75" width="24" height="24"/>
<path d="M7.97783 4.5853C7.94202 4.70882 7.83819 4.8037 7.70392 4.8234C7.26353 5.21008 6.83568 5.60751 6.42751 6.03178C8.29827 6.52767 10.1637 6.84812 12.0219 6.97701C13.4576 7.07726 14.8916 7.06294 16.322 6.93047C16.9808 6.85349 17.6682 6.75324 18.3986 6.62434C18.4487 6.61539 18.4953 6.60644 18.54 6.59749C18.5526 6.57242 18.5561 6.53662 18.549 6.4847C18.4971 6.13562 18.2303 5.88141 17.9546 5.62541L17.9349 5.6093L17.849 5.52874C17.7326 5.41953 17.6127 5.30854 17.4892 5.19755L17.4462 5.19039C17.2976 5.16891 17.1866 5.05075 17.1669 4.90933L17.0416 4.80012C16.7677 4.56203 16.4831 4.32393 16.1877 4.08762L16.0391 3.96768C15.1906 3.28561 13.2661 1.73172 12.5285 1.66906C11.5708 1.58671 10.6023 2.39588 9.67673 3.17104C9.61228 3.22475 9.56036 3.26771 9.36702 3.42704L9.1522 3.60427C8.75477 3.93188 8.36093 4.2559 7.97783 4.5853ZM19.6893 16.8375C19.6696 16.6549 19.8003 16.4919 19.9829 16.4705C20.1655 16.4508 20.3284 16.5815 20.3499 16.7641C20.3947 17.1579 20.4448 17.763 20.4412 18.3036C20.4394 18.7046 20.4054 19.0752 20.3177 19.3133C20.255 19.4852 20.0635 19.5747 19.8916 19.5102C19.7198 19.4476 19.6303 19.256 19.6947 19.0842C19.7556 18.9212 19.7771 18.6294 19.7806 18.3C19.7806 17.7988 19.7305 17.2188 19.6893 16.8375ZM4.83781 17.4318C4.8575 17.2492 5.0222 17.1185 5.2048 17.1382C5.3874 17.1579 5.51809 17.3226 5.49839 17.5052C5.46438 17.8131 5.45543 18.1031 5.47691 18.3734C5.4966 18.633 5.54494 18.8729 5.6255 19.0877C5.68816 19.2596 5.60044 19.4511 5.42858 19.5138C5.25672 19.5765 5.06516 19.4887 5.00251 19.3169C4.90226 19.043 4.84139 18.744 4.81633 18.4254C4.78947 18.1139 4.79842 17.7809 4.83781 17.4318ZM20.563 11.2753C19.6553 11.4865 18.7907 11.6727 17.96 11.8303C17.3621 11.9878 16.7552 12.1149 16.1412 12.2169C15.4716 12.3261 14.7967 12.4013 14.12 12.4425C13.352 12.489 12.5625 12.4908 11.7677 12.4497C9.32943 12.4067 7.08451 11.9484 4.72145 10.9853C4.40816 11.9359 4.15395 12.9849 3.98567 14.1504C3.79591 15.459 3.71356 16.9126 3.76906 18.5364C3.77622 18.7458 3.79591 18.9051 3.81202 19.0251C3.89437 19.6749 3.90153 19.7286 3.07804 19.9506C2.77908 20.0312 2.55888 20.1457 2.46937 20.3409C2.37986 20.5378 2.38881 20.835 2.53382 21.2807C2.83457 21.3022 3.17292 21.2807 3.51664 21.2575C3.98209 21.227 4.4565 21.1966 4.91479 21.261C5.54673 21.3506 6.2288 21.4633 6.93593 21.5797C7.81313 21.7247 8.7315 21.8769 9.63913 21.9986C11.4902 22.2457 13.1766 22.2564 14.9023 22.106C16.6424 21.9539 18.4165 21.637 20.4358 21.2252C20.4591 21.2199 20.4824 21.2181 20.5039 21.2181L23.0191 21.2521C23.0943 20.9119 23.1068 20.6542 23.0478 20.459C22.9851 20.2532 22.8204 20.101 22.5393 19.9739L22.5 19.956C21.9951 19.725 21.7928 19.6337 21.6854 19.3777C21.6156 19.213 21.6263 19.0663 21.6442 18.8228C21.6568 18.6491 21.6765 18.411 21.6675 18.0888C21.6335 16.7533 21.4939 15.2513 21.2593 13.9158L21.2576 13.9051C21.0821 12.8632 20.8458 11.9323 20.563 11.2753ZM11.961 11.7891C13.7494 11.8052 15.656 11.5904 17.806 11.184C17.858 11.1697 17.9099 11.1571 17.9618 11.1428L17.9958 11.1357L20.7814 10.4536C21.066 10.3694 21.2629 10.2065 21.39 9.98455C21.5315 9.73571 21.5977 9.40274 21.6049 9.00889C21.612 8.57208 21.4849 7.88643 21.2701 7.24554C21.0911 6.71564 20.8583 6.22871 20.5988 5.96913C20.5791 5.94943 20.5576 5.92974 20.5361 5.91184C20.2192 6.08907 20.085 6.27346 19.9597 6.44353C19.752 6.72817 19.564 6.98417 19.0055 7.1614C18.882 7.24733 18.7101 7.28672 18.5132 7.31536L18.3843 7.33326C18.318 7.34221 18.2482 7.35116 18.2088 7.35653C17.6163 7.45321 17.0237 7.53018 16.4312 7.58568C16.0857 7.62685 15.7455 7.66087 15.4143 7.68772C14.4512 7.76649 13.5328 7.78797 12.6127 7.75396C11.5511 7.71637 10.0795 7.57494 8.68854 7.32968C7.57682 7.13276 6.50628 6.86781 5.71322 6.52767C5.35339 6.37371 5.07412 6.20722 4.87898 6.02999C4.82528 5.97987 4.77515 5.92974 4.73398 5.87783C4.38489 6.41847 3.91406 7.27597 3.67239 8.08873C3.51127 8.62758 3.45219 9.1342 3.60436 9.4815C3.7243 9.75541 4.15216 10.015 4.67132 10.2441C4.76978 10.2853 4.86824 10.3265 4.96491 10.3659C5.62729 10.6272 6.36664 10.8367 6.7945 10.9566L6.87864 10.9799C8.02437 11.3039 9.24529 11.5402 10.4769 11.6781C10.9281 11.7282 11.381 11.764 11.8321 11.7873L11.961 11.7891ZM21.1716 11.0157C21.476 11.7264 21.7266 12.7075 21.9163 13.7905L21.9181 13.8031C22.1562 15.1636 22.2994 16.7014 22.3335 18.0763C22.3424 18.4468 22.3245 18.6939 22.3102 18.8747C22.2995 19.0179 22.2923 19.1056 22.2994 19.12C22.3084 19.1397 22.4427 19.2005 22.7792 19.3545L22.8186 19.3724C23.2823 19.5836 23.5615 19.8647 23.6851 20.2693C23.7979 20.6398 23.7603 21.091 23.5991 21.6782C23.5598 21.8196 23.4291 21.9234 23.2751 21.9216L20.5325 21.884C18.4935 22.2976 16.7051 22.618 14.9614 22.7702C13.1945 22.9259 11.4634 22.9116 9.555 22.6574C8.6223 22.5339 7.70571 22.3817 6.83031 22.2367C6.13213 22.1203 5.45901 22.0093 4.82349 21.9198C4.43322 21.8643 3.99104 21.893 3.55781 21.9216C3.10131 21.9521 2.65376 21.9807 2.24201 21.918C2.12565 21.9001 2.02361 21.8232 1.97885 21.705C1.70316 20.9692 1.69063 20.4483 1.86607 20.067C2.05225 19.657 2.42462 19.4386 2.90439 19.3097C3.16934 19.2381 3.16755 19.2292 3.15144 19.1092C3.13354 18.9732 3.11205 18.7959 3.1031 18.5578C3.04582 16.8894 3.13175 15.3981 3.32509 14.0573C3.50411 12.8202 3.77622 11.7085 4.11278 10.7006C3.58467 10.4321 3.14965 10.1134 2.98853 9.75004C2.76296 9.23804 2.82562 8.57387 3.02791 7.89897C3.29823 6.99133 3.82276 6.04611 4.19871 5.47324C4.39384 5.17428 4.62656 4.90575 4.92553 4.69987C5.22807 4.49221 5.5879 4.35615 6.03008 4.33288C6.27892 4.30066 6.55103 4.27022 6.82135 4.24337C7.01291 4.22368 7.22057 4.20399 7.42465 4.18608C7.84893 3.81909 8.28395 3.45926 8.72613 3.09585L8.94096 2.91862L9.24529 2.66441C10.2747 1.80332 11.3506 0.902852 12.5804 1.00847C13.5185 1.08903 15.554 2.73065 16.4491 3.45389L16.5977 3.57384C16.893 3.81193 17.1848 4.0554 17.4695 4.30245C17.5715 4.39017 17.6736 4.48147 17.7756 4.57277C18.3055 4.65512 18.8927 4.74463 19.4244 4.84846L19.6106 4.88426C19.999 4.95945 20.3428 5.02748 20.656 5.19755C20.7241 5.21366 20.7867 5.25305 20.8333 5.30854C20.912 5.36404 20.989 5.43028 21.0642 5.50546C21.399 5.84202 21.6854 6.42205 21.8931 7.03788C22.1294 7.74501 22.2708 8.51659 22.2619 9.02142C22.2529 9.52447 22.1616 9.96307 21.9629 10.3139C21.7875 10.6254 21.5279 10.8653 21.1716 11.0157ZM5.17616 5.34256C5.19764 5.40342 5.24777 5.46966 5.32295 5.53948C5.42142 5.62899 5.55747 5.7185 5.72754 5.80622C6.01039 5.50188 6.3004 5.21187 6.59758 4.9326C6.42572 4.9505 6.25923 4.97019 6.10527 4.99168L6.08021 4.99347C5.76334 5.00958 5.51272 5.10267 5.30505 5.24588C5.2603 5.27453 5.21733 5.30675 5.17616 5.34256ZM19.1934 6.32001C19.2901 6.23766 19.3564 6.14815 19.4244 6.05327C19.53 5.90826 19.6428 5.7543 19.82 5.60034C19.7144 5.57707 19.6052 5.55559 19.4906 5.53232L19.3062 5.49472C19.1004 5.45534 18.8802 5.41595 18.6564 5.37836C18.9034 5.63436 19.1165 5.91542 19.1934 6.32001ZM15.6077 6.20901C15.699 6.20901 15.7724 6.28241 15.7724 6.37371C15.7724 6.46501 15.699 6.53841 15.6077 6.53841C15.5164 6.53841 15.443 6.46501 15.443 6.37371C15.443 6.28241 15.5164 6.20901 15.6077 6.20901ZM11.5994 2.99023C11.6853 2.99023 11.7552 3.06005 11.7552 3.14598C11.7552 3.23191 11.6853 3.30172 11.5994 3.30172C11.5135 3.30172 11.4437 3.23191 11.4437 3.14598C11.4437 3.06005 11.5135 2.99023 11.5994 2.99023ZM13.5239 4.60499C13.6098 4.60499 13.6796 4.67481 13.6796 4.76074C13.6796 4.84667 13.6098 4.91649 13.5239 4.91649C13.4379 4.91649 13.3681 4.84667 13.3681 4.76074C13.3681 4.67481 13.4379 4.60499 13.5239 4.60499ZM11.9145 5.51621C12.0398 5.51621 12.1418 5.61825 12.1418 5.74356C12.1418 5.86888 12.0398 5.97092 11.9145 5.97092C11.7892 5.97092 11.6889 5.86708 11.6889 5.74177C11.6889 5.61646 11.7892 5.51621 11.9145 5.51621ZM11.8321 4.04645C11.9181 4.04645 11.9879 4.11627 11.9879 4.2022C11.9879 4.28813 11.9181 4.35794 11.8321 4.35794C11.7462 4.35794 11.6764 4.28813 11.6764 4.2022C11.6764 4.11627 11.7462 4.04645 11.8321 4.04645ZM10.6381 4.59067C10.7634 4.59067 10.8654 4.69271 10.8654 4.81803C10.8654 4.94334 10.7634 5.04538 10.6381 5.04538C10.5128 5.04538 10.4107 4.94334 10.4107 4.81803C10.4107 4.69271 10.5128 4.59067 10.6381 4.59067ZM7.91159 5.71134C7.97783 5.71134 8.03332 5.76504 8.03332 5.83307C8.03332 5.89931 7.97962 5.9548 7.91159 5.9548C7.84535 5.9548 7.78985 5.9011 7.78985 5.83307C7.78985 5.76683 7.84535 5.71134 7.91159 5.71134ZM8.88367 5.56096C9.00898 5.56096 9.11102 5.663 9.11102 5.78832C9.11102 5.91363 9.00898 6.01567 8.88367 6.01567C8.75835 6.01567 8.65631 5.91363 8.65631 5.78832C8.6581 5.663 8.75835 5.56096 8.88367 5.56096ZM10.1135 6.01209C10.1995 6.01209 10.2693 6.08191 10.2693 6.16784C10.2693 6.25377 10.1995 6.32359 10.1135 6.32359C10.0276 6.32359 9.95779 6.25377 9.95779 6.16784C9.95779 6.08191 10.0276 6.01209 10.1135 6.01209ZM9.3706 4.44208C9.46727 4.44208 9.54604 4.52085 9.54604 4.61752C9.54604 4.71419 9.46727 4.79296 9.3706 4.79296C9.27393 4.79296 9.19516 4.71419 9.19516 4.61752C9.19337 4.52085 9.27214 4.44208 9.3706 4.44208ZM13.1802 2.92757C13.2553 2.92757 13.3162 2.98844 13.3162 3.06363C13.3162 3.13882 13.2553 3.19968 13.1802 3.19968C13.105 3.19968 13.0441 3.13882 13.0441 3.06363C13.0441 2.98844 13.105 2.92757 13.1802 2.92757ZM13.506 6.12308C13.5722 6.12308 13.6277 6.17679 13.6277 6.24482C13.6277 6.31106 13.574 6.36655 13.506 6.36655C13.4397 6.36655 13.3842 6.31285 13.3842 6.24482C13.3842 6.17679 13.4379 6.12308 13.506 6.12308ZM15.6435 4.23621C15.7097 4.23621 15.7652 4.28992 15.7652 4.35794C15.7652 4.42597 15.7115 4.47968 15.6435 4.47968C15.5754 4.47968 15.5217 4.42597 15.5217 4.35794C15.5217 4.28992 15.5772 4.23621 15.6435 4.23621ZM14.4333 5.37657C14.5371 5.37657 14.6195 5.46071 14.6195 5.56275C14.6195 5.66658 14.5353 5.74893 14.4333 5.74893C14.3295 5.74893 14.2471 5.66479 14.2471 5.56275C14.2453 5.45892 14.3295 5.37657 14.4333 5.37657ZM15.3875 5.17428C15.4967 5.17428 15.5862 5.262 15.5862 5.37299C15.5862 5.48219 15.4985 5.5717 15.3875 5.5717C15.2783 5.5717 15.1888 5.48398 15.1888 5.37299C15.1906 5.26379 15.2783 5.17428 15.3875 5.17428ZM16.5923 5.76325C16.6746 5.76325 16.7409 5.82949 16.7409 5.91184C16.7409 5.99419 16.6746 6.06043 16.5923 6.06043C16.5099 6.06043 16.4437 5.99419 16.4437 5.91184C16.4437 5.83128 16.5099 5.76325 16.5923 5.76325ZM16.3739 4.87889C16.4652 4.87889 16.5386 4.95229 16.5386 5.04359C16.5386 5.13489 16.4652 5.20829 16.3739 5.20829C16.2826 5.20829 16.2092 5.13489 16.2092 5.04359C16.2092 4.95229 16.2826 4.87889 16.3739 4.87889Z"/>
</mask>
<path d="M7.97783 4.5853C7.94202 4.70882 7.83819 4.8037 7.70392 4.8234C7.26353 5.21008 6.83568 5.60751 6.42751 6.03178C8.29827 6.52767 10.1637 6.84812 12.0219 6.97701C13.4576 7.07726 14.8916 7.06294 16.322 6.93047C16.9808 6.85349 17.6682 6.75324 18.3986 6.62434C18.4487 6.61539 18.4953 6.60644 18.54 6.59749C18.5526 6.57242 18.5561 6.53662 18.549 6.4847C18.4971 6.13562 18.2303 5.88141 17.9546 5.62541L17.9349 5.6093L17.849 5.52874C17.7326 5.41953 17.6127 5.30854 17.4892 5.19755L17.4462 5.19039C17.2976 5.16891 17.1866 5.05075 17.1669 4.90933L17.0416 4.80012C16.7677 4.56203 16.4831 4.32393 16.1877 4.08762L16.0391 3.96768C15.1906 3.28561 13.2661 1.73172 12.5285 1.66906C11.5708 1.58671 10.6023 2.39588 9.67673 3.17104C9.61228 3.22475 9.56036 3.26771 9.36702 3.42704L9.1522 3.60427C8.75477 3.93188 8.36093 4.2559 7.97783 4.5853ZM19.6893 16.8375C19.6696 16.6549 19.8003 16.4919 19.9829 16.4705C20.1655 16.4508 20.3284 16.5815 20.3499 16.7641C20.3947 17.1579 20.4448 17.763 20.4412 18.3036C20.4394 18.7046 20.4054 19.0752 20.3177 19.3133C20.255 19.4852 20.0635 19.5747 19.8916 19.5102C19.7198 19.4476 19.6303 19.256 19.6947 19.0842C19.7556 18.9212 19.7771 18.6294 19.7806 18.3C19.7806 17.7988 19.7305 17.2188 19.6893 16.8375ZM4.83781 17.4318C4.8575 17.2492 5.0222 17.1185 5.2048 17.1382C5.3874 17.1579 5.51809 17.3226 5.49839 17.5052C5.46438 17.8131 5.45543 18.1031 5.47691 18.3734C5.4966 18.633 5.54494 18.8729 5.6255 19.0877C5.68816 19.2596 5.60044 19.4511 5.42858 19.5138C5.25672 19.5765 5.06516 19.4887 5.00251 19.3169C4.90226 19.043 4.84139 18.744 4.81633 18.4254C4.78947 18.1139 4.79842 17.7809 4.83781 17.4318ZM20.563 11.2753C19.6553 11.4865 18.7907 11.6727 17.96 11.8303C17.3621 11.9878 16.7552 12.1149 16.1412 12.2169C15.4716 12.3261 14.7967 12.4013 14.12 12.4425C13.352 12.489 12.5625 12.4908 11.7677 12.4497C9.32943 12.4067 7.08451 11.9484 4.72145 10.9853C4.40816 11.9359 4.15395 12.9849 3.98567 14.1504C3.79591 15.459 3.71356 16.9126 3.76906 18.5364C3.77622 18.7458 3.79591 18.9051 3.81202 19.0251C3.89437 19.6749 3.90153 19.7286 3.07804 19.9506C2.77908 20.0312 2.55888 20.1457 2.46937 20.3409C2.37986 20.5378 2.38881 20.835 2.53382 21.2807C2.83457 21.3022 3.17292 21.2807 3.51664 21.2575C3.98209 21.227 4.4565 21.1966 4.91479 21.261C5.54673 21.3506 6.2288 21.4633 6.93593 21.5797C7.81313 21.7247 8.7315 21.8769 9.63913 21.9986C11.4902 22.2457 13.1766 22.2564 14.9023 22.106C16.6424 21.9539 18.4165 21.637 20.4358 21.2252C20.4591 21.2199 20.4824 21.2181 20.5039 21.2181L23.0191 21.2521C23.0943 20.9119 23.1068 20.6542 23.0478 20.459C22.9851 20.2532 22.8204 20.101 22.5393 19.9739L22.5 19.956C21.9951 19.725 21.7928 19.6337 21.6854 19.3777C21.6156 19.213 21.6263 19.0663 21.6442 18.8228C21.6568 18.6491 21.6765 18.411 21.6675 18.0888C21.6335 16.7533 21.4939 15.2513 21.2593 13.9158L21.2576 13.9051C21.0821 12.8632 20.8458 11.9323 20.563 11.2753ZM11.961 11.7891C13.7494 11.8052 15.656 11.5904 17.806 11.184C17.858 11.1697 17.9099 11.1571 17.9618 11.1428L17.9958 11.1357L20.7814 10.4536C21.066 10.3694 21.2629 10.2065 21.39 9.98455C21.5315 9.73571 21.5977 9.40274 21.6049 9.00889C21.612 8.57208 21.4849 7.88643 21.2701 7.24554C21.0911 6.71564 20.8583 6.22871 20.5988 5.96913C20.5791 5.94943 20.5576 5.92974 20.5361 5.91184C20.2192 6.08907 20.085 6.27346 19.9597 6.44353C19.752 6.72817 19.564 6.98417 19.0055 7.1614C18.882 7.24733 18.7101 7.28672 18.5132 7.31536L18.3843 7.33326C18.318 7.34221 18.2482 7.35116 18.2088 7.35653C17.6163 7.45321 17.0237 7.53018 16.4312 7.58568C16.0857 7.62685 15.7455 7.66087 15.4143 7.68772C14.4512 7.76649 13.5328 7.78797 12.6127 7.75396C11.5511 7.71637 10.0795 7.57494 8.68854 7.32968C7.57682 7.13276 6.50628 6.86781 5.71322 6.52767C5.35339 6.37371 5.07412 6.20722 4.87898 6.02999C4.82528 5.97987 4.77515 5.92974 4.73398 5.87783C4.38489 6.41847 3.91406 7.27597 3.67239 8.08873C3.51127 8.62758 3.45219 9.1342 3.60436 9.4815C3.7243 9.75541 4.15216 10.015 4.67132 10.2441C4.76978 10.2853 4.86824 10.3265 4.96491 10.3659C5.62729 10.6272 6.36664 10.8367 6.7945 10.9566L6.87864 10.9799C8.02437 11.3039 9.24529 11.5402 10.4769 11.6781C10.9281 11.7282 11.381 11.764 11.8321 11.7873L11.961 11.7891ZM21.1716 11.0157C21.476 11.7264 21.7266 12.7075 21.9163 13.7905L21.9181 13.8031C22.1562 15.1636 22.2994 16.7014 22.3335 18.0763C22.3424 18.4468 22.3245 18.6939 22.3102 18.8747C22.2995 19.0179 22.2923 19.1056 22.2994 19.12C22.3084 19.1397 22.4427 19.2005 22.7792 19.3545L22.8186 19.3724C23.2823 19.5836 23.5615 19.8647 23.6851 20.2693C23.7979 20.6398 23.7603 21.091 23.5991 21.6782C23.5598 21.8196 23.4291 21.9234 23.2751 21.9216L20.5325 21.884C18.4935 22.2976 16.7051 22.618 14.9614 22.7702C13.1945 22.9259 11.4634 22.9116 9.555 22.6574C8.6223 22.5339 7.70571 22.3817 6.83031 22.2367C6.13213 22.1203 5.45901 22.0093 4.82349 21.9198C4.43322 21.8643 3.99104 21.893 3.55781 21.9216C3.10131 21.9521 2.65376 21.9807 2.24201 21.918C2.12565 21.9001 2.02361 21.8232 1.97885 21.705C1.70316 20.9692 1.69063 20.4483 1.86607 20.067C2.05225 19.657 2.42462 19.4386 2.90439 19.3097C3.16934 19.2381 3.16755 19.2292 3.15144 19.1092C3.13354 18.9732 3.11205 18.7959 3.1031 18.5578C3.04582 16.8894 3.13175 15.3981 3.32509 14.0573C3.50411 12.8202 3.77622 11.7085 4.11278 10.7006C3.58467 10.4321 3.14965 10.1134 2.98853 9.75004C2.76296 9.23804 2.82562 8.57387 3.02791 7.89897C3.29823 6.99133 3.82276 6.04611 4.19871 5.47324C4.39384 5.17428 4.62656 4.90575 4.92553 4.69987C5.22807 4.49221 5.5879 4.35615 6.03008 4.33288C6.27892 4.30066 6.55103 4.27022 6.82135 4.24337C7.01291 4.22368 7.22057 4.20399 7.42465 4.18608C7.84893 3.81909 8.28395 3.45926 8.72613 3.09585L8.94096 2.91862L9.24529 2.66441C10.2747 1.80332 11.3506 0.902852 12.5804 1.00847C13.5185 1.08903 15.554 2.73065 16.4491 3.45389L16.5977 3.57384C16.893 3.81193 17.1848 4.0554 17.4695 4.30245C17.5715 4.39017 17.6736 4.48147 17.7756 4.57277C18.3055 4.65512 18.8927 4.74463 19.4244 4.84846L19.6106 4.88426C19.999 4.95945 20.3428 5.02748 20.656 5.19755C20.7241 5.21366 20.7867 5.25305 20.8333 5.30854C20.912 5.36404 20.989 5.43028 21.0642 5.50546C21.399 5.84202 21.6854 6.42205 21.8931 7.03788C22.1294 7.74501 22.2708 8.51659 22.2619 9.02142C22.2529 9.52447 22.1616 9.96307 21.9629 10.3139C21.7875 10.6254 21.5279 10.8653 21.1716 11.0157ZM5.17616 5.34256C5.19764 5.40342 5.24777 5.46966 5.32295 5.53948C5.42142 5.62899 5.55747 5.7185 5.72754 5.80622C6.01039 5.50188 6.3004 5.21187 6.59758 4.9326C6.42572 4.9505 6.25923 4.97019 6.10527 4.99168L6.08021 4.99347C5.76334 5.00958 5.51272 5.10267 5.30505 5.24588C5.2603 5.27453 5.21733 5.30675 5.17616 5.34256ZM19.1934 6.32001C19.2901 6.23766 19.3564 6.14815 19.4244 6.05327C19.53 5.90826 19.6428 5.7543 19.82 5.60034C19.7144 5.57707 19.6052 5.55559 19.4906 5.53232L19.3062 5.49472C19.1004 5.45534 18.8802 5.41595 18.6564 5.37836C18.9034 5.63436 19.1165 5.91542 19.1934 6.32001ZM15.6077 6.20901C15.699 6.20901 15.7724 6.28241 15.7724 6.37371C15.7724 6.46501 15.699 6.53841 15.6077 6.53841C15.5164 6.53841 15.443 6.46501 15.443 6.37371C15.443 6.28241 15.5164 6.20901 15.6077 6.20901ZM11.5994 2.99023C11.6853 2.99023 11.7552 3.06005 11.7552 3.14598C11.7552 3.23191 11.6853 3.30172 11.5994 3.30172C11.5135 3.30172 11.4437 3.23191 11.4437 3.14598C11.4437 3.06005 11.5135 2.99023 11.5994 2.99023ZM13.5239 4.60499C13.6098 4.60499 13.6796 4.67481 13.6796 4.76074C13.6796 4.84667 13.6098 4.91649 13.5239 4.91649C13.4379 4.91649 13.3681 4.84667 13.3681 4.76074C13.3681 4.67481 13.4379 4.60499 13.5239 4.60499ZM11.9145 5.51621C12.0398 5.51621 12.1418 5.61825 12.1418 5.74356C12.1418 5.86888 12.0398 5.97092 11.9145 5.97092C11.7892 5.97092 11.6889 5.86708 11.6889 5.74177C11.6889 5.61646 11.7892 5.51621 11.9145 5.51621ZM11.8321 4.04645C11.9181 4.04645 11.9879 4.11627 11.9879 4.2022C11.9879 4.28813 11.9181 4.35794 11.8321 4.35794C11.7462 4.35794 11.6764 4.28813 11.6764 4.2022C11.6764 4.11627 11.7462 4.04645 11.8321 4.04645ZM10.6381 4.59067C10.7634 4.59067 10.8654 4.69271 10.8654 4.81803C10.8654 4.94334 10.7634 5.04538 10.6381 5.04538C10.5128 5.04538 10.4107 4.94334 10.4107 4.81803C10.4107 4.69271 10.5128 4.59067 10.6381 4.59067ZM7.91159 5.71134C7.97783 5.71134 8.03332 5.76504 8.03332 5.83307C8.03332 5.89931 7.97962 5.9548 7.91159 5.9548C7.84535 5.9548 7.78985 5.9011 7.78985 5.83307C7.78985 5.76683 7.84535 5.71134 7.91159 5.71134ZM8.88367 5.56096C9.00898 5.56096 9.11102 5.663 9.11102 5.78832C9.11102 5.91363 9.00898 6.01567 8.88367 6.01567C8.75835 6.01567 8.65631 5.91363 8.65631 5.78832C8.6581 5.663 8.75835 5.56096 8.88367 5.56096ZM10.1135 6.01209C10.1995 6.01209 10.2693 6.08191 10.2693 6.16784C10.2693 6.25377 10.1995 6.32359 10.1135 6.32359C10.0276 6.32359 9.95779 6.25377 9.95779 6.16784C9.95779 6.08191 10.0276 6.01209 10.1135 6.01209ZM9.3706 4.44208C9.46727 4.44208 9.54604 4.52085 9.54604 4.61752C9.54604 4.71419 9.46727 4.79296 9.3706 4.79296C9.27393 4.79296 9.19516 4.71419 9.19516 4.61752C9.19337 4.52085 9.27214 4.44208 9.3706 4.44208ZM13.1802 2.92757C13.2553 2.92757 13.3162 2.98844 13.3162 3.06363C13.3162 3.13882 13.2553 3.19968 13.1802 3.19968C13.105 3.19968 13.0441 3.13882 13.0441 3.06363C13.0441 2.98844 13.105 2.92757 13.1802 2.92757ZM13.506 6.12308C13.5722 6.12308 13.6277 6.17679 13.6277 6.24482C13.6277 6.31106 13.574 6.36655 13.506 6.36655C13.4397 6.36655 13.3842 6.31285 13.3842 6.24482C13.3842 6.17679 13.4379 6.12308 13.506 6.12308ZM15.6435 4.23621C15.7097 4.23621 15.7652 4.28992 15.7652 4.35794C15.7652 4.42597 15.7115 4.47968 15.6435 4.47968C15.5754 4.47968 15.5217 4.42597 15.5217 4.35794C15.5217 4.28992 15.5772 4.23621 15.6435 4.23621ZM14.4333 5.37657C14.5371 5.37657 14.6195 5.46071 14.6195 5.56275C14.6195 5.66658 14.5353 5.74893 14.4333 5.74893C14.3295 5.74893 14.2471 5.66479 14.2471 5.56275C14.2453 5.45892 14.3295 5.37657 14.4333 5.37657ZM15.3875 5.17428C15.4967 5.17428 15.5862 5.262 15.5862 5.37299C15.5862 5.48219 15.4985 5.5717 15.3875 5.5717C15.2783 5.5717 15.1888 5.48398 15.1888 5.37299C15.1906 5.26379 15.2783 5.17428 15.3875 5.17428ZM16.5923 5.76325C16.6746 5.76325 16.7409 5.82949 16.7409 5.91184C16.7409 5.99419 16.6746 6.06043 16.5923 6.06043C16.5099 6.06043 16.4437 5.99419 16.4437 5.91184C16.4437 5.83128 16.5099 5.76325 16.5923 5.76325ZM16.3739 4.87889C16.4652 4.87889 16.5386 4.95229 16.5386 5.04359C16.5386 5.13489 16.4652 5.20829 16.3739 5.20829C16.2826 5.20829 16.2092 5.13489 16.2092 5.04359C16.2092 4.95229 16.2826 4.87889 16.3739 4.87889Z" fill="#777777"/>
<path d="M7.97783 4.5853C7.94202 4.70882 7.83819 4.8037 7.70392 4.8234C7.26353 5.21008 6.83568 5.60751 6.42751 6.03178C8.29827 6.52767 10.1637 6.84812 12.0219 6.97701C13.4576 7.07726 14.8916 7.06294 16.322 6.93047C16.9808 6.85349 17.6682 6.75324 18.3986 6.62434C18.4487 6.61539 18.4953 6.60644 18.54 6.59749C18.5526 6.57242 18.5561 6.53662 18.549 6.4847C18.4971 6.13562 18.2303 5.88141 17.9546 5.62541L17.9349 5.6093L17.849 5.52874C17.7326 5.41953 17.6127 5.30854 17.4892 5.19755L17.4462 5.19039C17.2976 5.16891 17.1866 5.05075 17.1669 4.90933L17.0416 4.80012C16.7677 4.56203 16.4831 4.32393 16.1877 4.08762L16.0391 3.96768C15.1906 3.28561 13.2661 1.73172 12.5285 1.66906C11.5708 1.58671 10.6023 2.39588 9.67673 3.17104C9.61228 3.22475 9.56036 3.26771 9.36702 3.42704L9.1522 3.60427C8.75477 3.93188 8.36093 4.2559 7.97783 4.5853ZM19.6893 16.8375C19.6696 16.6549 19.8003 16.4919 19.9829 16.4705C20.1655 16.4508 20.3284 16.5815 20.3499 16.7641C20.3947 17.1579 20.4448 17.763 20.4412 18.3036C20.4394 18.7046 20.4054 19.0752 20.3177 19.3133C20.255 19.4852 20.0635 19.5747 19.8916 19.5102C19.7198 19.4476 19.6303 19.256 19.6947 19.0842C19.7556 18.9212 19.7771 18.6294 19.7806 18.3C19.7806 17.7988 19.7305 17.2188 19.6893 16.8375ZM4.83781 17.4318C4.8575 17.2492 5.0222 17.1185 5.2048 17.1382C5.3874 17.1579 5.51809 17.3226 5.49839 17.5052C5.46438 17.8131 5.45543 18.1031 5.47691 18.3734C5.4966 18.633 5.54494 18.8729 5.6255 19.0877C5.68816 19.2596 5.60044 19.4511 5.42858 19.5138C5.25672 19.5765 5.06516 19.4887 5.00251 19.3169C4.90226 19.043 4.84139 18.744 4.81633 18.4254C4.78947 18.1139 4.79842 17.7809 4.83781 17.4318ZM20.563 11.2753C19.6553 11.4865 18.7907 11.6727 17.96 11.8303C17.3621 11.9878 16.7552 12.1149 16.1412 12.2169C15.4716 12.3261 14.7967 12.4013 14.12 12.4425C13.352 12.489 12.5625 12.4908 11.7677 12.4497C9.32943 12.4067 7.08451 11.9484 4.72145 10.9853C4.40816 11.9359 4.15395 12.9849 3.98567 14.1504C3.79591 15.459 3.71356 16.9126 3.76906 18.5364C3.77622 18.7458 3.79591 18.9051 3.81202 19.0251C3.89437 19.6749 3.90153 19.7286 3.07804 19.9506C2.77908 20.0312 2.55888 20.1457 2.46937 20.3409C2.37986 20.5378 2.38881 20.835 2.53382 21.2807C2.83457 21.3022 3.17292 21.2807 3.51664 21.2575C3.98209 21.227 4.4565 21.1966 4.91479 21.261C5.54673 21.3506 6.2288 21.4633 6.93593 21.5797C7.81313 21.7247 8.7315 21.8769 9.63913 21.9986C11.4902 22.2457 13.1766 22.2564 14.9023 22.106C16.6424 21.9539 18.4165 21.637 20.4358 21.2252C20.4591 21.2199 20.4824 21.2181 20.5039 21.2181L23.0191 21.2521C23.0943 20.9119 23.1068 20.6542 23.0478 20.459C22.9851 20.2532 22.8204 20.101 22.5393 19.9739L22.5 19.956C21.9951 19.725 21.7928 19.6337 21.6854 19.3777C21.6156 19.213 21.6263 19.0663 21.6442 18.8228C21.6568 18.6491 21.6765 18.411 21.6675 18.0888C21.6335 16.7533 21.4939 15.2513 21.2593 13.9158L21.2576 13.9051C21.0821 12.8632 20.8458 11.9323 20.563 11.2753ZM11.961 11.7891C13.7494 11.8052 15.656 11.5904 17.806 11.184C17.858 11.1697 17.9099 11.1571 17.9618 11.1428L17.9958 11.1357L20.7814 10.4536C21.066 10.3694 21.2629 10.2065 21.39 9.98455C21.5315 9.73571 21.5977 9.40274 21.6049 9.00889C21.612 8.57208 21.4849 7.88643 21.2701 7.24554C21.0911 6.71564 20.8583 6.22871 20.5988 5.96913C20.5791 5.94943 20.5576 5.92974 20.5361 5.91184C20.2192 6.08907 20.085 6.27346 19.9597 6.44353C19.752 6.72817 19.564 6.98417 19.0055 7.1614C18.882 7.24733 18.7101 7.28672 18.5132 7.31536L18.3843 7.33326C18.318 7.34221 18.2482 7.35116 18.2088 7.35653C17.6163 7.45321 17.0237 7.53018 16.4312 7.58568C16.0857 7.62685 15.7455 7.66087 15.4143 7.68772C14.4512 7.76649 13.5328 7.78797 12.6127 7.75396C11.5511 7.71637 10.0795 7.57494 8.68854 7.32968C7.57682 7.13276 6.50628 6.86781 5.71322 6.52767C5.35339 6.37371 5.07412 6.20722 4.87898 6.02999C4.82528 5.97987 4.77515 5.92974 4.73398 5.87783C4.38489 6.41847 3.91406 7.27597 3.67239 8.08873C3.51127 8.62758 3.45219 9.1342 3.60436 9.4815C3.7243 9.75541 4.15216 10.015 4.67132 10.2441C4.76978 10.2853 4.86824 10.3265 4.96491 10.3659C5.62729 10.6272 6.36664 10.8367 6.7945 10.9566L6.87864 10.9799C8.02437 11.3039 9.24529 11.5402 10.4769 11.6781C10.9281 11.7282 11.381 11.764 11.8321 11.7873L11.961 11.7891ZM21.1716 11.0157C21.476 11.7264 21.7266 12.7075 21.9163 13.7905L21.9181 13.8031C22.1562 15.1636 22.2994 16.7014 22.3335 18.0763C22.3424 18.4468 22.3245 18.6939 22.3102 18.8747C22.2995 19.0179 22.2923 19.1056 22.2994 19.12C22.3084 19.1397 22.4427 19.2005 22.7792 19.3545L22.8186 19.3724C23.2823 19.5836 23.5615 19.8647 23.6851 20.2693C23.7979 20.6398 23.7603 21.091 23.5991 21.6782C23.5598 21.8196 23.4291 21.9234 23.2751 21.9216L20.5325 21.884C18.4935 22.2976 16.7051 22.618 14.9614 22.7702C13.1945 22.9259 11.4634 22.9116 9.555 22.6574C8.6223 22.5339 7.70571 22.3817 6.83031 22.2367C6.13213 22.1203 5.45901 22.0093 4.82349 21.9198C4.43322 21.8643 3.99104 21.893 3.55781 21.9216C3.10131 21.9521 2.65376 21.9807 2.24201 21.918C2.12565 21.9001 2.02361 21.8232 1.97885 21.705C1.70316 20.9692 1.69063 20.4483 1.86607 20.067C2.05225 19.657 2.42462 19.4386 2.90439 19.3097C3.16934 19.2381 3.16755 19.2292 3.15144 19.1092C3.13354 18.9732 3.11205 18.7959 3.1031 18.5578C3.04582 16.8894 3.13175 15.3981 3.32509 14.0573C3.50411 12.8202 3.77622 11.7085 4.11278 10.7006C3.58467 10.4321 3.14965 10.1134 2.98853 9.75004C2.76296 9.23804 2.82562 8.57387 3.02791 7.89897C3.29823 6.99133 3.82276 6.04611 4.19871 5.47324C4.39384 5.17428 4.62656 4.90575 4.92553 4.69987C5.22807 4.49221 5.5879 4.35615 6.03008 4.33288C6.27892 4.30066 6.55103 4.27022 6.82135 4.24337C7.01291 4.22368 7.22057 4.20399 7.42465 4.18608C7.84893 3.81909 8.28395 3.45926 8.72613 3.09585L8.94096 2.91862L9.24529 2.66441C10.2747 1.80332 11.3506 0.902852 12.5804 1.00847C13.5185 1.08903 15.554 2.73065 16.4491 3.45389L16.5977 3.57384C16.893 3.81193 17.1848 4.0554 17.4695 4.30245C17.5715 4.39017 17.6736 4.48147 17.7756 4.57277C18.3055 4.65512 18.8927 4.74463 19.4244 4.84846L19.6106 4.88426C19.999 4.95945 20.3428 5.02748 20.656 5.19755C20.7241 5.21366 20.7867 5.25305 20.8333 5.30854C20.912 5.36404 20.989 5.43028 21.0642 5.50546C21.399 5.84202 21.6854 6.42205 21.8931 7.03788C22.1294 7.74501 22.2708 8.51659 22.2619 9.02142C22.2529 9.52447 22.1616 9.96307 21.9629 10.3139C21.7875 10.6254 21.5279 10.8653 21.1716 11.0157ZM5.17616 5.34256C5.19764 5.40342 5.24777 5.46966 5.32295 5.53948C5.42142 5.62899 5.55747 5.7185 5.72754 5.80622C6.01039 5.50188 6.3004 5.21187 6.59758 4.9326C6.42572 4.9505 6.25923 4.97019 6.10527 4.99168L6.08021 4.99347C5.76334 5.00958 5.51272 5.10267 5.30505 5.24588C5.2603 5.27453 5.21733 5.30675 5.17616 5.34256ZM19.1934 6.32001C19.2901 6.23766 19.3564 6.14815 19.4244 6.05327C19.53 5.90826 19.6428 5.7543 19.82 5.60034C19.7144 5.57707 19.6052 5.55559 19.4906 5.53232L19.3062 5.49472C19.1004 5.45534 18.8802 5.41595 18.6564 5.37836C18.9034 5.63436 19.1165 5.91542 19.1934 6.32001ZM15.6077 6.20901C15.699 6.20901 15.7724 6.28241 15.7724 6.37371C15.7724 6.46501 15.699 6.53841 15.6077 6.53841C15.5164 6.53841 15.443 6.46501 15.443 6.37371C15.443 6.28241 15.5164 6.20901 15.6077 6.20901ZM11.5994 2.99023C11.6853 2.99023 11.7552 3.06005 11.7552 3.14598C11.7552 3.23191 11.6853 3.30172 11.5994 3.30172C11.5135 3.30172 11.4437 3.23191 11.4437 3.14598C11.4437 3.06005 11.5135 2.99023 11.5994 2.99023ZM13.5239 4.60499C13.6098 4.60499 13.6796 4.67481 13.6796 4.76074C13.6796 4.84667 13.6098 4.91649 13.5239 4.91649C13.4379 4.91649 13.3681 4.84667 13.3681 4.76074C13.3681 4.67481 13.4379 4.60499 13.5239 4.60499ZM11.9145 5.51621C12.0398 5.51621 12.1418 5.61825 12.1418 5.74356C12.1418 5.86888 12.0398 5.97092 11.9145 5.97092C11.7892 5.97092 11.6889 5.86708 11.6889 5.74177C11.6889 5.61646 11.7892 5.51621 11.9145 5.51621ZM11.8321 4.04645C11.9181 4.04645 11.9879 4.11627 11.9879 4.2022C11.9879 4.28813 11.9181 4.35794 11.8321 4.35794C11.7462 4.35794 11.6764 4.28813 11.6764 4.2022C11.6764 4.11627 11.7462 4.04645 11.8321 4.04645ZM10.6381 4.59067C10.7634 4.59067 10.8654 4.69271 10.8654 4.81803C10.8654 4.94334 10.7634 5.04538 10.6381 5.04538C10.5128 5.04538 10.4107 4.94334 10.4107 4.81803C10.4107 4.69271 10.5128 4.59067 10.6381 4.59067ZM7.91159 5.71134C7.97783 5.71134 8.03332 5.76504 8.03332 5.83307C8.03332 5.89931 7.97962 5.9548 7.91159 5.9548C7.84535 5.9548 7.78985 5.9011 7.78985 5.83307C7.78985 5.76683 7.84535 5.71134 7.91159 5.71134ZM8.88367 5.56096C9.00898 5.56096 9.11102 5.663 9.11102 5.78832C9.11102 5.91363 9.00898 6.01567 8.88367 6.01567C8.75835 6.01567 8.65631 5.91363 8.65631 5.78832C8.6581 5.663 8.75835 5.56096 8.88367 5.56096ZM10.1135 6.01209C10.1995 6.01209 10.2693 6.08191 10.2693 6.16784C10.2693 6.25377 10.1995 6.32359 10.1135 6.32359C10.0276 6.32359 9.95779 6.25377 9.95779 6.16784C9.95779 6.08191 10.0276 6.01209 10.1135 6.01209ZM9.3706 4.44208C9.46727 4.44208 9.54604 4.52085 9.54604 4.61752C9.54604 4.71419 9.46727 4.79296 9.3706 4.79296C9.27393 4.79296 9.19516 4.71419 9.19516 4.61752C9.19337 4.52085 9.27214 4.44208 9.3706 4.44208ZM13.1802 2.92757C13.2553 2.92757 13.3162 2.98844 13.3162 3.06363C13.3162 3.13882 13.2553 3.19968 13.1802 3.19968C13.105 3.19968 13.0441 3.13882 13.0441 3.06363C13.0441 2.98844 13.105 2.92757 13.1802 2.92757ZM13.506 6.12308C13.5722 6.12308 13.6277 6.17679 13.6277 6.24482C13.6277 6.31106 13.574 6.36655 13.506 6.36655C13.4397 6.36655 13.3842 6.31285 13.3842 6.24482C13.3842 6.17679 13.4379 6.12308 13.506 6.12308ZM15.6435 4.23621C15.7097 4.23621 15.7652 4.28992 15.7652 4.35794C15.7652 4.42597 15.7115 4.47968 15.6435 4.47968C15.5754 4.47968 15.5217 4.42597 15.5217 4.35794C15.5217 4.28992 15.5772 4.23621 15.6435 4.23621ZM14.4333 5.37657C14.5371 5.37657 14.6195 5.46071 14.6195 5.56275C14.6195 5.66658 14.5353 5.74893 14.4333 5.74893C14.3295 5.74893 14.2471 5.66479 14.2471 5.56275C14.2453 5.45892 14.3295 5.37657 14.4333 5.37657ZM15.3875 5.17428C15.4967 5.17428 15.5862 5.262 15.5862 5.37299C15.5862 5.48219 15.4985 5.5717 15.3875 5.5717C15.2783 5.5717 15.1888 5.48398 15.1888 5.37299C15.1906 5.26379 15.2783 5.17428 15.3875 5.17428ZM16.5923 5.76325C16.6746 5.76325 16.7409 5.82949 16.7409 5.91184C16.7409 5.99419 16.6746 6.06043 16.5923 6.06043C16.5099 6.06043 16.4437 5.99419 16.4437 5.91184C16.4437 5.83128 16.5099 5.76325 16.5923 5.76325ZM16.3739 4.87889C16.4652 4.87889 16.5386 4.95229 16.5386 5.04359C16.5386 5.13489 16.4652 5.20829 16.3739 5.20829C16.2826 5.20829 16.2092 5.13489 16.2092 5.04359C16.2092 4.95229 16.2826 4.87889 16.3739 4.87889Z" stroke="#777777" stroke-width="0.6" mask="url(#path-1-outside-1_3701_123071)"/>
<path fill-rule="evenodd" clip-rule="evenodd" d="M8.63196 14.6235H10.6866C10.7519 14.3425 10.8956 14.1134 11.0961 13.9393C11.1938 13.8544 11.2978 13.789 11.4025 13.7399C11.4401 13.7223 11.4756 13.7078 11.5085 13.6962C11.5309 13.6883 11.5492 13.6826 11.5631 13.6789L11.6085 13.6667H13.8914L13.9368 13.6789C13.9506 13.6826 13.969 13.6883 13.9913 13.6962C14.0242 13.7078 14.0598 13.7223 14.0973 13.7399C14.202 13.789 14.3061 13.8544 14.4038 13.9393C14.6042 14.1134 14.7479 14.3425 14.8132 14.6235H16.8679L16.9091 14.9333C16.9106 14.9442 16.9121 14.9589 16.9134 14.9772C16.9205 15.0758 16.9164 15.1937 16.8937 15.3248C16.8607 15.5146 16.7931 15.702 16.6825 15.8781C16.3747 16.3683 15.8031 16.6747 14.9458 16.7398C14.9428 16.9176 14.9325 17.0202 14.9052 17.1516C14.8488 17.4221 14.7251 17.6749 14.4917 17.9945L14.4978 18.0742C14.5185 18.3498 14.5235 18.5237 14.5073 18.7204C14.4742 19.1199 14.3498 19.4534 14.0923 19.7102C13.7931 20.0087 13.3489 20.1607 12.7555 20.1626C12.7536 20.1626 12.7518 20.1626 12.7499 20.1626C12.7481 20.1626 12.7462 20.1626 12.7443 20.1626C12.151 20.1608 11.7068 20.0087 11.4075 19.7102C11.15 19.4534 11.0256 19.1199 10.9926 18.7204C10.9763 18.5237 10.9814 18.3498 11.0021 18.0742L11.0081 17.9945C10.7747 17.6749 10.651 17.4221 10.5947 17.1516C10.5673 17.0202 10.557 16.9176 10.5541 16.7398C9.69678 16.6747 9.12514 16.3683 8.81736 15.8781C8.70676 15.702 8.63912 15.5146 8.60618 15.3248C8.58343 15.1937 8.57932 15.0758 8.58641 14.9772C8.58773 14.9589 8.58925 14.9442 8.59071 14.9333L8.63196 14.6235ZM12.7499 19.4488C13.1706 19.448 13.4358 19.3575 13.5892 19.2045C13.7105 19.0835 13.7765 18.9065 13.7968 18.6615C13.8091 18.5123 13.805 18.3682 13.7869 18.1278L13.7826 18.0707L13.7784 18.0144C13.7753 17.9715 13.773 17.9367 13.7714 17.9042L13.7646 17.7725L13.845 17.6681C14.0718 17.3735 14.1697 17.1864 14.2073 17.0058C14.2307 16.8933 14.235 16.7981 14.2336 16.5137C14.2334 16.4591 14.2333 16.4304 14.2333 16.3958V16.0389H14.5897C15.0457 16.0389 15.3971 15.9713 15.6557 15.851C15.855 15.7583 15.9906 15.6388 16.079 15.4981C16.1114 15.4465 16.137 15.3926 16.1564 15.3374H14.1396V14.9804C14.1396 14.7451 14.0644 14.5895 13.9367 14.4785C13.8918 14.4396 13.8431 14.4089 13.7951 14.3864C13.7905 14.3843 13.7862 14.3823 13.782 14.3805H11.7179C11.7137 14.3823 11.7093 14.3843 11.7048 14.3864C11.6568 14.4089 11.608 14.4396 11.5632 14.4785C11.4355 14.5895 11.3602 14.7451 11.3602 14.9804V15.3374H9.34346C9.36283 15.3926 9.3884 15.4465 9.42085 15.4981C9.50919 15.6388 9.64483 15.7583 9.8441 15.851C10.1028 15.9713 10.4541 16.0389 10.9101 16.0389H11.2666V16.3958C11.2666 16.4304 11.2665 16.4591 11.2662 16.5137C11.2649 16.7981 11.2691 16.8933 11.2925 17.0058C11.3302 17.1864 11.428 17.3735 11.6548 17.6681L11.7352 17.7725L11.7285 17.9042C11.7268 17.9367 11.7246 17.9715 11.7215 18.0144L11.7173 18.0707L11.7129 18.1278C11.6949 18.3682 11.6907 18.5123 11.703 18.6615C11.7233 18.9065 11.7893 19.0835 11.9106 19.2045C12.064 19.3575 12.3292 19.448 12.7499 19.4488Z" fill="#777777"/>
</svg>
