<svg width="25" height="24" viewBox="0 0 25 24" fill="none" xmlns="http://www.w3.org/2000/svg">
<path d="M19.6822 12.98C19.7222 12.66 19.7522 12.34 19.7522 12C19.7522 11.66 19.7222 11.34 19.6822 11.02L21.7922 9.37C21.9822 9.22 22.0322 8.95 21.9122 8.73L19.9122 5.27C19.8222 5.11 19.6522 5.02 19.4722 5.02C19.4122 5.02 19.3522 5.03 19.3022 5.05L16.8122 6.05C16.2922 5.65 15.7322 5.32 15.1222 5.07L14.7422 2.42C14.7122 2.18 14.5022 2 14.2522 2H10.2522C10.0022 2 9.79216 2.18 9.76216 2.42L9.38216 5.07C8.77216 5.32 8.21216 5.66 7.69216 6.05L5.20216 5.05C5.14216 5.03 5.08216 5.02 5.02216 5.02C4.85216 5.02 4.68216 5.11 4.59216 5.27L2.59216 8.73C2.46216 8.95 2.52216 9.22 2.71216 9.37L4.82216 11.02C4.78216 11.34 4.75216 11.67 4.75216 12C4.75216 12.33 4.78216 12.66 4.82216 12.98L2.71216 14.63C2.52216 14.78 2.47216 15.05 2.59216 15.27L4.59216 18.73C4.68216 18.89 4.85216 18.98 5.03216 18.98C5.09216 18.98 5.15216 18.97 5.20216 18.95L7.69216 17.95C8.21216 18.35 8.77216 18.68 9.38216 18.93L9.76216 21.58C9.79216 21.82 10.0022 22 10.2522 22H14.2522C14.5022 22 14.7122 21.82 14.7422 21.58L15.1222 18.93C15.7322 18.68 16.2922 18.34 16.8122 17.95L19.3022 18.95C19.3622 18.97 19.4222 18.98 19.4822 18.98C19.6522 18.98 19.8222 18.89 19.9122 18.73L21.9122 15.27C22.0322 15.05 21.9822 14.78 21.7922 14.63L19.6822 12.98ZM17.7022 11.27C17.7422 11.58 17.7522 11.79 17.7522 12C17.7522 12.21 17.7322 12.43 17.7022 12.73L17.5622 13.86L18.4522 14.56L19.5322 15.4L18.8322 16.61L17.5622 16.1L16.5222 15.68L15.6222 16.36C15.1922 16.68 14.7822 16.92 14.3722 17.09L13.3122 17.52L13.1522 18.65L12.9522 20H11.5522L11.2022 17.52L10.1422 17.09C9.71216 16.91 9.31216 16.68 8.91216 16.38L8.00216 15.68L6.94216 16.11L5.67216 16.62L4.97216 15.41L6.05216 14.57L6.94216 13.87L6.80216 12.74C6.77216 12.43 6.75216 12.2 6.75216 12C6.75216 11.8 6.77216 11.57 6.80216 11.27L6.94216 10.14L6.05216 9.44L4.97216 8.6L5.67216 7.39L6.94216 7.9L7.98216 8.32L8.88216 7.64C9.31216 7.32 9.72216 7.08 10.1322 6.91L11.1922 6.48L11.3522 5.35L11.5522 4H12.9422L13.2922 6.48L14.3522 6.91C14.7822 7.09 15.1822 7.32 15.5822 7.62L16.4922 8.32L17.5522 7.89L18.8222 7.38L19.5222 8.59L18.4522 9.44L17.5622 10.14L17.7022 11.27ZM12.2522 8C10.0422 8 8.25216 9.79 8.25216 12C8.25216 14.21 10.0422 16 12.2522 16C14.4622 16 16.2522 14.21 16.2522 12C16.2522 9.79 14.4622 8 12.2522 8ZM12.2522 14C11.1522 14 10.2522 13.1 10.2522 12C10.2522 10.9 11.1522 10 12.2522 10C13.3522 10 14.2522 10.9 14.2522 12C14.2522 13.1 13.3522 14 12.2522 14Z" fill="#000"/>
</svg>
