<svg width="24" height="24" viewBox="0 0 24 24" fill="#000" xmlns="http://www.w3.org/2000/svg">
<mask id="path-1-outside-1_3918_1588" maskUnits="userSpaceOnUse" x="0" y="0" width="24" height="24" fill="#000">
<rect fill="#000" width="24" height="24"/>
<path d="M7.22783 4.5853C7.19202 4.70882 7.08819 4.8037 6.95392 4.8234C6.51353 5.21008 6.08568 5.60751 5.67751 6.03178C7.54827 6.52767 9.41366 6.84812 11.2719 6.97701C12.7076 7.07726 14.1416 7.06294 15.572 6.93047C16.2308 6.85349 16.9182 6.75324 17.6486 6.62434C17.6987 6.61539 17.7453 6.60644 17.79 6.59749C17.8026 6.57243 17.8061 6.53662 17.799 6.4847C17.7471 6.13562 17.4803 5.88141 17.2046 5.62541L17.1849 5.6093L17.099 5.52874C16.9826 5.41953 16.8627 5.30854 16.7392 5.19755L16.6962 5.19039C16.5476 5.16891 16.4366 5.05075 16.4169 4.90933L16.2916 4.80012C16.0177 4.56203 15.7331 4.32393 15.4377 4.08762L15.2891 3.96768C14.4406 3.28561 12.5161 1.73172 11.7785 1.66906C10.8208 1.58671 9.85226 2.39588 8.92673 3.17104C8.86228 3.22475 8.81036 3.26771 8.61702 3.42704L8.4022 3.60427C8.00477 3.93188 7.61093 4.2559 7.22783 4.5853ZM18.9393 16.8375C18.9196 16.6549 19.0503 16.4919 19.2329 16.4705C19.4155 16.4508 19.5784 16.5815 19.5999 16.7641C19.6447 17.1579 19.6948 17.763 19.6912 18.3036C19.6894 18.7046 19.6554 19.0752 19.5677 19.3133C19.505 19.4852 19.3135 19.5747 19.1416 19.5102C18.9698 19.4476 18.8803 19.256 18.9447 19.0842C19.0056 18.9212 19.0271 18.6294 19.0306 18.3C19.0306 17.7988 18.9805 17.2188 18.9393 16.8375ZM4.08781 17.4318C4.1075 17.2492 4.2722 17.1185 4.4548 17.1382C4.6374 17.1579 4.76809 17.3226 4.74839 17.5052C4.71438 17.8131 4.70543 18.1031 4.72691 18.3734C4.7466 18.633 4.79494 18.8729 4.8755 19.0877C4.93816 19.2596 4.85044 19.4511 4.67858 19.5138C4.50672 19.5765 4.31516 19.4887 4.25251 19.3169C4.15226 19.043 4.09139 18.744 4.06633 18.4254C4.03947 18.1139 4.04842 17.7809 4.08781 17.4318ZM19.813 11.2753C18.9053 11.4865 18.0407 11.6727 17.21 11.8303C16.6121 11.9878 16.0052 12.1149 15.3912 12.2169C14.7216 12.3261 14.0467 12.4013 13.37 12.4425C12.602 12.489 11.8125 12.4908 11.0177 12.4497C8.57943 12.4067 6.33451 11.9484 3.97145 10.9853C3.65816 11.9359 3.40395 12.9849 3.23567 14.1504C3.04591 15.459 2.96356 16.9126 3.01906 18.5364C3.02622 18.7458 3.04591 18.9051 3.06202 19.0251C3.14437 19.6749 3.15153 19.7286 2.32804 19.9506C2.02908 20.0312 1.80888 20.1457 1.71937 20.3409C1.62986 20.5378 1.63881 20.835 1.78382 21.2807C2.08457 21.3022 2.42292 21.2807 2.76664 21.2575C3.23209 21.227 3.7065 21.1966 4.16479 21.261C4.79673 21.3506 5.4788 21.4633 6.18593 21.5797C7.06313 21.7247 7.9815 21.8769 8.88913 21.9986C10.7402 22.2457 12.4266 22.2564 14.1523 22.106C15.8924 21.9539 17.6665 21.637 19.6858 21.2252C19.7091 21.2199 19.7324 21.2181 19.7539 21.2181L22.2691 21.2521C22.3443 20.9119 22.3568 20.6542 22.2978 20.459C22.2351 20.2532 22.0704 20.101 21.7893 19.9739L21.75 19.956C21.2451 19.725 21.0428 19.6337 20.9354 19.3777C20.8656 19.213 20.8763 19.0663 20.8942 18.8228C20.9068 18.6491 20.9265 18.411 20.9175 18.0888C20.8835 16.7533 20.7439 15.2513 20.5093 13.9158L20.5076 13.9051C20.3321 12.8632 20.0958 11.9323 19.813 11.2753ZM11.211 11.7891C12.9994 11.8052 14.906 11.5904 17.056 11.184C17.108 11.1697 17.1599 11.1571 17.2118 11.1428L17.2458 11.1357L20.0314 10.4536C20.316 10.3694 20.5129 10.2065 20.64 9.98455C20.7815 9.73571 20.8477 9.40274 20.8549 9.00889C20.862 8.57208 20.7349 7.88643 20.5201 7.24554C20.3411 6.71564 20.1083 6.22871 19.8488 5.96913C19.8291 5.94943 19.8076 5.92974 19.7861 5.91184C19.4692 6.08907 19.335 6.27346 19.2097 6.44353C19.002 6.72817 18.814 6.98417 18.2555 7.1614C18.132 7.24733 17.9601 7.28672 17.7632 7.31536L17.6343 7.33326C17.568 7.34221 17.4982 7.35116 17.4588 7.35653C16.8663 7.4532 16.2737 7.53018 15.6812 7.58568C15.3357 7.62685 14.9955 7.66087 14.6643 7.68772C13.7012 7.76649 12.7828 7.78797 11.8627 7.75396C10.8011 7.71637 9.32952 7.57494 7.93854 7.32968C6.82682 7.13276 5.75628 6.86781 4.96322 6.52767C4.60339 6.37371 4.32412 6.20722 4.12898 6.02999C4.07528 5.97987 4.02515 5.92974 3.98398 5.87783C3.63489 6.41847 3.16406 7.27597 2.92239 8.08873C2.76127 8.62758 2.70219 9.13421 2.85436 9.4815C2.9743 9.75541 3.40216 10.015 3.92132 10.2441C4.01978 10.2853 4.11824 10.3265 4.21491 10.3659C4.87729 10.6272 5.61664 10.8367 6.0445 10.9566L6.12864 10.9799C7.27437 11.3039 8.49529 11.5402 9.72695 11.6781C10.1781 11.7282 10.631 11.764 11.0821 11.7873L11.211 11.7891ZM20.4216 11.0157C20.726 11.7264 20.9766 12.7075 21.1663 13.7905L21.1681 13.8031C21.4062 15.1636 21.5494 16.7014 21.5835 18.0763C21.5924 18.4468 21.5745 18.6939 21.5602 18.8747C21.5495 19.0179 21.5423 19.1056 21.5494 19.12C21.5584 19.1397 21.6927 19.2005 22.0292 19.3545L22.0686 19.3724C22.5323 19.5836 22.8115 19.8647 22.9351 20.2693C23.0479 20.6398 23.0103 21.091 22.8491 21.6782C22.8098 21.8196 22.6791 21.9234 22.5251 21.9216L19.7825 21.884C17.7435 22.2976 15.9551 22.618 14.2114 22.7702C12.4445 22.9259 10.7134 22.9116 8.805 22.6574C7.8723 22.5339 6.95571 22.3817 6.08031 22.2367C5.38213 22.1203 4.70901 22.0093 4.07349 21.9198C3.68322 21.8643 3.24104 21.893 2.80781 21.9216C2.35131 21.9521 1.90376 21.9807 1.49201 21.918C1.37565 21.9001 1.27361 21.8232 1.22885 21.705C0.953163 20.9692 0.940632 20.4483 1.11607 20.067C1.30225 19.657 1.67462 19.4386 2.15439 19.3097C2.41934 19.2381 2.41755 19.2292 2.40144 19.1092C2.38354 18.9732 2.36205 18.7959 2.3531 18.5578C2.29582 16.8894 2.38175 15.3981 2.57509 14.0573C2.75411 12.8202 3.02622 11.7085 3.36278 10.7006C2.83467 10.4321 2.39965 10.1134 2.23853 9.75004C2.01296 9.23804 2.07562 8.57387 2.27791 7.89897C2.54823 6.99133 3.07276 6.04611 3.44871 5.47324C3.64384 5.17428 3.87656 4.90575 4.17553 4.69987C4.47807 4.49221 4.8379 4.35615 5.28008 4.33288C5.52892 4.30066 5.80103 4.27022 6.07135 4.24337C6.26291 4.22368 6.47057 4.20399 6.67465 4.18608C7.09893 3.81909 7.53395 3.45926 7.97613 3.09585L8.19096 2.91862L8.49529 2.66441C9.52466 1.80332 10.6006 0.902852 11.8304 1.00847C12.7685 1.08903 14.804 2.73065 15.6991 3.45389L15.8477 3.57384C16.143 3.81193 16.4348 4.0554 16.7195 4.30245C16.8215 4.39017 16.9236 4.48147 17.0256 4.57277C17.5555 4.65512 18.1427 4.74463 18.6744 4.84846L18.8606 4.88426C19.249 4.95945 19.5928 5.02748 19.906 5.19755C19.9741 5.21366 20.0367 5.25305 20.0833 5.30854C20.162 5.36404 20.239 5.43028 20.3142 5.50546C20.649 5.84202 20.9354 6.42205 21.1431 7.03788C21.3794 7.74501 21.5208 8.51659 21.5119 9.02142C21.5029 9.52447 21.4116 9.96307 21.2129 10.3139C21.0375 10.6254 20.7779 10.8653 20.4216 11.0157ZM4.42616 5.34256C4.44764 5.40342 4.49777 5.46966 4.57295 5.53948C4.67142 5.62899 4.80747 5.7185 4.97754 5.80622C5.26039 5.50188 5.5504 5.21187 5.84758 4.9326C5.67572 4.9505 5.50923 4.97019 5.35527 4.99168L5.33021 4.99347C5.01334 5.00958 4.76272 5.10267 4.55505 5.24588C4.5103 5.27453 4.46733 5.30675 4.42616 5.34256ZM18.4434 6.32001C18.5401 6.23766 18.6064 6.14815 18.6744 6.05327C18.78 5.90826 18.8928 5.7543 19.07 5.60034C18.9644 5.57707 18.8552 5.55559 18.7406 5.53232L18.5562 5.49472C18.3504 5.45534 18.1302 5.41595 17.9064 5.37836C18.1534 5.63436 18.3665 5.91542 18.4434 6.32001ZM14.8577 6.20901C14.949 6.20901 15.0224 6.28241 15.0224 6.37371C15.0224 6.46501 14.949 6.53841 14.8577 6.53841C14.7664 6.53841 14.693 6.46501 14.693 6.37371C14.693 6.28241 14.7664 6.20901 14.8577 6.20901ZM10.8494 2.99023C10.9353 2.99023 11.0052 3.06005 11.0052 3.14598C11.0052 3.23191 10.9353 3.30172 10.8494 3.30172C10.7635 3.30172 10.6937 3.23191 10.6937 3.14598C10.6937 3.06005 10.7635 2.99023 10.8494 2.99023ZM12.7739 4.60499C12.8598 4.60499 12.9296 4.67481 12.9296 4.76074C12.9296 4.84667 12.8598 4.91649 12.7739 4.91649C12.6879 4.91649 12.6181 4.84667 12.6181 4.76074C12.6181 4.67481 12.6879 4.60499 12.7739 4.60499ZM11.1645 5.51621C11.2898 5.51621 11.3918 5.61825 11.3918 5.74356C11.3918 5.86888 11.2898 5.97092 11.1645 5.97092C11.0392 5.97092 10.9389 5.86708 10.9389 5.74177C10.9389 5.61646 11.0392 5.51621 11.1645 5.51621ZM11.0821 4.04645C11.1681 4.04645 11.2379 4.11627 11.2379 4.2022C11.2379 4.28813 11.1681 4.35794 11.0821 4.35794C10.9962 4.35794 10.9264 4.28813 10.9264 4.2022C10.9264 4.11627 10.9962 4.04645 11.0821 4.04645ZM9.88807 4.59067C10.0134 4.59067 10.1154 4.69271 10.1154 4.81803C10.1154 4.94334 10.0134 5.04538 9.88807 5.04538C9.76275 5.04538 9.66071 4.94334 9.66071 4.81803C9.66071 4.69271 9.76275 4.59067 9.88807 4.59067ZM7.16159 5.71134C7.22783 5.71134 7.28332 5.76504 7.28332 5.83307C7.28332 5.89931 7.22962 5.9548 7.16159 5.9548C7.09535 5.9548 7.03985 5.9011 7.03985 5.83307C7.03985 5.76683 7.09535 5.71134 7.16159 5.71134ZM8.13367 5.56096C8.25898 5.56096 8.36102 5.663 8.36102 5.78832C8.36102 5.91363 8.25898 6.01567 8.13367 6.01567C8.00835 6.01567 7.90631 5.91363 7.90631 5.78832C7.9081 5.663 8.00835 5.56096 8.13367 5.56096ZM9.36354 6.01209C9.44947 6.01209 9.51929 6.08191 9.51929 6.16784C9.51929 6.25377 9.44947 6.32359 9.36354 6.32359C9.27761 6.32359 9.20779 6.25377 9.20779 6.16784C9.20779 6.08191 9.27761 6.01209 9.36354 6.01209ZM8.6206 4.44208C8.71727 4.44208 8.79604 4.52085 8.79604 4.61752C8.79604 4.71419 8.71727 4.79296 8.6206 4.79296C8.52393 4.79296 8.44516 4.71419 8.44516 4.61752C8.44337 4.52085 8.52214 4.44208 8.6206 4.44208ZM12.4302 2.92757C12.5053 2.92757 12.5662 2.98844 12.5662 3.06363C12.5662 3.13882 12.5053 3.19968 12.4302 3.19968C12.355 3.19968 12.2941 3.13882 12.2941 3.06363C12.2941 2.98844 12.355 2.92757 12.4302 2.92757ZM12.756 6.12308C12.8222 6.12308 12.8777 6.17679 12.8777 6.24482C12.8777 6.31106 12.824 6.36655 12.756 6.36655C12.6897 6.36655 12.6342 6.31285 12.6342 6.24482C12.6342 6.17679 12.6879 6.12308 12.756 6.12308ZM14.8935 4.23621C14.9597 4.23621 15.0152 4.28992 15.0152 4.35794C15.0152 4.42597 14.9615 4.47968 14.8935 4.47968C14.8254 4.47968 14.7717 4.42597 14.7717 4.35794C14.7717 4.28992 14.8272 4.23621 14.8935 4.23621ZM13.6833 5.37657C13.7871 5.37657 13.8695 5.46071 13.8695 5.56275C13.8695 5.66658 13.7853 5.74893 13.6833 5.74893C13.5795 5.74893 13.4971 5.66479 13.4971 5.56275C13.4953 5.45892 13.5795 5.37657 13.6833 5.37657ZM14.6375 5.17428C14.7467 5.17428 14.8362 5.262 14.8362 5.37299C14.8362 5.48219 14.7485 5.5717 14.6375 5.5717C14.5283 5.5717 14.4388 5.48398 14.4388 5.37299C14.4406 5.26379 14.5283 5.17428 14.6375 5.17428ZM15.8423 5.76325C15.9246 5.76325 15.9909 5.82949 15.9909 5.91184C15.9909 5.99419 15.9246 6.06043 15.8423 6.06043C15.7599 6.06043 15.6937 5.99419 15.6937 5.91184C15.6937 5.83128 15.7599 5.76325 15.8423 5.76325ZM15.6239 4.87889C15.7152 4.87889 15.7886 4.95229 15.7886 5.04359C15.7886 5.13489 15.7152 5.20829 15.6239 5.20829C15.5326 5.20829 15.4592 5.13489 15.4592 5.04359C15.4592 4.95229 15.5326 4.87889 15.6239 4.87889Z"/>
</mask>
<path d="M7.22783 4.5853C7.19202 4.70882 7.08819 4.8037 6.95392 4.8234C6.51353 5.21008 6.08568 5.60751 5.67751 6.03178C7.54827 6.52767 9.41366 6.84812 11.2719 6.97701C12.7076 7.07726 14.1416 7.06294 15.572 6.93047C16.2308 6.85349 16.9182 6.75324 17.6486 6.62434C17.6987 6.61539 17.7453 6.60644 17.79 6.59749C17.8026 6.57243 17.8061 6.53662 17.799 6.4847C17.7471 6.13562 17.4803 5.88141 17.2046 5.62541L17.1849 5.6093L17.099 5.52874C16.9826 5.41953 16.8627 5.30854 16.7392 5.19755L16.6962 5.19039C16.5476 5.16891 16.4366 5.05075 16.4169 4.90933L16.2916 4.80012C16.0177 4.56203 15.7331 4.32393 15.4377 4.08762L15.2891 3.96768C14.4406 3.28561 12.5161 1.73172 11.7785 1.66906C10.8208 1.58671 9.85226 2.39588 8.92673 3.17104C8.86228 3.22475 8.81036 3.26771 8.61702 3.42704L8.4022 3.60427C8.00477 3.93188 7.61093 4.2559 7.22783 4.5853ZM18.9393 16.8375C18.9196 16.6549 19.0503 16.4919 19.2329 16.4705C19.4155 16.4508 19.5784 16.5815 19.5999 16.7641C19.6447 17.1579 19.6948 17.763 19.6912 18.3036C19.6894 18.7046 19.6554 19.0752 19.5677 19.3133C19.505 19.4852 19.3135 19.5747 19.1416 19.5102C18.9698 19.4476 18.8803 19.256 18.9447 19.0842C19.0056 18.9212 19.0271 18.6294 19.0306 18.3C19.0306 17.7988 18.9805 17.2188 18.9393 16.8375ZM4.08781 17.4318C4.1075 17.2492 4.2722 17.1185 4.4548 17.1382C4.6374 17.1579 4.76809 17.3226 4.74839 17.5052C4.71438 17.8131 4.70543 18.1031 4.72691 18.3734C4.7466 18.633 4.79494 18.8729 4.8755 19.0877C4.93816 19.2596 4.85044 19.4511 4.67858 19.5138C4.50672 19.5765 4.31516 19.4887 4.25251 19.3169C4.15226 19.043 4.09139 18.744 4.06633 18.4254C4.03947 18.1139 4.04842 17.7809 4.08781 17.4318ZM19.813 11.2753C18.9053 11.4865 18.0407 11.6727 17.21 11.8303C16.6121 11.9878 16.0052 12.1149 15.3912 12.2169C14.7216 12.3261 14.0467 12.4013 13.37 12.4425C12.602 12.489 11.8125 12.4908 11.0177 12.4497C8.57943 12.4067 6.33451 11.9484 3.97145 10.9853C3.65816 11.9359 3.40395 12.9849 3.23567 14.1504C3.04591 15.459 2.96356 16.9126 3.01906 18.5364C3.02622 18.7458 3.04591 18.9051 3.06202 19.0251C3.14437 19.6749 3.15153 19.7286 2.32804 19.9506C2.02908 20.0312 1.80888 20.1457 1.71937 20.3409C1.62986 20.5378 1.63881 20.835 1.78382 21.2807C2.08457 21.3022 2.42292 21.2807 2.76664 21.2575C3.23209 21.227 3.7065 21.1966 4.16479 21.261C4.79673 21.3506 5.4788 21.4633 6.18593 21.5797C7.06313 21.7247 7.9815 21.8769 8.88913 21.9986C10.7402 22.2457 12.4266 22.2564 14.1523 22.106C15.8924 21.9539 17.6665 21.637 19.6858 21.2252C19.7091 21.2199 19.7324 21.2181 19.7539 21.2181L22.2691 21.2521C22.3443 20.9119 22.3568 20.6542 22.2978 20.459C22.2351 20.2532 22.0704 20.101 21.7893 19.9739L21.75 19.956C21.2451 19.725 21.0428 19.6337 20.9354 19.3777C20.8656 19.213 20.8763 19.0663 20.8942 18.8228C20.9068 18.6491 20.9265 18.411 20.9175 18.0888C20.8835 16.7533 20.7439 15.2513 20.5093 13.9158L20.5076 13.9051C20.3321 12.8632 20.0958 11.9323 19.813 11.2753ZM11.211 11.7891C12.9994 11.8052 14.906 11.5904 17.056 11.184C17.108 11.1697 17.1599 11.1571 17.2118 11.1428L17.2458 11.1357L20.0314 10.4536C20.316 10.3694 20.5129 10.2065 20.64 9.98455C20.7815 9.73571 20.8477 9.40274 20.8549 9.00889C20.862 8.57208 20.7349 7.88643 20.5201 7.24554C20.3411 6.71564 20.1083 6.22871 19.8488 5.96913C19.8291 5.94943 19.8076 5.92974 19.7861 5.91184C19.4692 6.08907 19.335 6.27346 19.2097 6.44353C19.002 6.72817 18.814 6.98417 18.2555 7.1614C18.132 7.24733 17.9601 7.28672 17.7632 7.31536L17.6343 7.33326C17.568 7.34221 17.4982 7.35116 17.4588 7.35653C16.8663 7.4532 16.2737 7.53018 15.6812 7.58568C15.3357 7.62685 14.9955 7.66087 14.6643 7.68772C13.7012 7.76649 12.7828 7.78797 11.8627 7.75396C10.8011 7.71637 9.32952 7.57494 7.93854 7.32968C6.82682 7.13276 5.75628 6.86781 4.96322 6.52767C4.60339 6.37371 4.32412 6.20722 4.12898 6.02999C4.07528 5.97987 4.02515 5.92974 3.98398 5.87783C3.63489 6.41847 3.16406 7.27597 2.92239 8.08873C2.76127 8.62758 2.70219 9.13421 2.85436 9.4815C2.9743 9.75541 3.40216 10.015 3.92132 10.2441C4.01978 10.2853 4.11824 10.3265 4.21491 10.3659C4.87729 10.6272 5.61664 10.8367 6.0445 10.9566L6.12864 10.9799C7.27437 11.3039 8.49529 11.5402 9.72695 11.6781C10.1781 11.7282 10.631 11.764 11.0821 11.7873L11.211 11.7891ZM20.4216 11.0157C20.726 11.7264 20.9766 12.7075 21.1663 13.7905L21.1681 13.8031C21.4062 15.1636 21.5494 16.7014 21.5835 18.0763C21.5924 18.4468 21.5745 18.6939 21.5602 18.8747C21.5495 19.0179 21.5423 19.1056 21.5494 19.12C21.5584 19.1397 21.6927 19.2005 22.0292 19.3545L22.0686 19.3724C22.5323 19.5836 22.8115 19.8647 22.9351 20.2693C23.0479 20.6398 23.0103 21.091 22.8491 21.6782C22.8098 21.8196 22.6791 21.9234 22.5251 21.9216L19.7825 21.884C17.7435 22.2976 15.9551 22.618 14.2114 22.7702C12.4445 22.9259 10.7134 22.9116 8.805 22.6574C7.8723 22.5339 6.95571 22.3817 6.08031 22.2367C5.38213 22.1203 4.70901 22.0093 4.07349 21.9198C3.68322 21.8643 3.24104 21.893 2.80781 21.9216C2.35131 21.9521 1.90376 21.9807 1.49201 21.918C1.37565 21.9001 1.27361 21.8232 1.22885 21.705C0.953163 20.9692 0.940632 20.4483 1.11607 20.067C1.30225 19.657 1.67462 19.4386 2.15439 19.3097C2.41934 19.2381 2.41755 19.2292 2.40144 19.1092C2.38354 18.9732 2.36205 18.7959 2.3531 18.5578C2.29582 16.8894 2.38175 15.3981 2.57509 14.0573C2.75411 12.8202 3.02622 11.7085 3.36278 10.7006C2.83467 10.4321 2.39965 10.1134 2.23853 9.75004C2.01296 9.23804 2.07562 8.57387 2.27791 7.89897C2.54823 6.99133 3.07276 6.04611 3.44871 5.47324C3.64384 5.17428 3.87656 4.90575 4.17553 4.69987C4.47807 4.49221 4.8379 4.35615 5.28008 4.33288C5.52892 4.30066 5.80103 4.27022 6.07135 4.24337C6.26291 4.22368 6.47057 4.20399 6.67465 4.18608C7.09893 3.81909 7.53395 3.45926 7.97613 3.09585L8.19096 2.91862L8.49529 2.66441C9.52466 1.80332 10.6006 0.902852 11.8304 1.00847C12.7685 1.08903 14.804 2.73065 15.6991 3.45389L15.8477 3.57384C16.143 3.81193 16.4348 4.0554 16.7195 4.30245C16.8215 4.39017 16.9236 4.48147 17.0256 4.57277C17.5555 4.65512 18.1427 4.74463 18.6744 4.84846L18.8606 4.88426C19.249 4.95945 19.5928 5.02748 19.906 5.19755C19.9741 5.21366 20.0367 5.25305 20.0833 5.30854C20.162 5.36404 20.239 5.43028 20.3142 5.50546C20.649 5.84202 20.9354 6.42205 21.1431 7.03788C21.3794 7.74501 21.5208 8.51659 21.5119 9.02142C21.5029 9.52447 21.4116 9.96307 21.2129 10.3139C21.0375 10.6254 20.7779 10.8653 20.4216 11.0157ZM4.42616 5.34256C4.44764 5.40342 4.49777 5.46966 4.57295 5.53948C4.67142 5.62899 4.80747 5.7185 4.97754 5.80622C5.26039 5.50188 5.5504 5.21187 5.84758 4.9326C5.67572 4.9505 5.50923 4.97019 5.35527 4.99168L5.33021 4.99347C5.01334 5.00958 4.76272 5.10267 4.55505 5.24588C4.5103 5.27453 4.46733 5.30675 4.42616 5.34256ZM18.4434 6.32001C18.5401 6.23766 18.6064 6.14815 18.6744 6.05327C18.78 5.90826 18.8928 5.7543 19.07 5.60034C18.9644 5.57707 18.8552 5.55559 18.7406 5.53232L18.5562 5.49472C18.3504 5.45534 18.1302 5.41595 17.9064 5.37836C18.1534 5.63436 18.3665 5.91542 18.4434 6.32001ZM14.8577 6.20901C14.949 6.20901 15.0224 6.28241 15.0224 6.37371C15.0224 6.46501 14.949 6.53841 14.8577 6.53841C14.7664 6.53841 14.693 6.46501 14.693 6.37371C14.693 6.28241 14.7664 6.20901 14.8577 6.20901ZM10.8494 2.99023C10.9353 2.99023 11.0052 3.06005 11.0052 3.14598C11.0052 3.23191 10.9353 3.30172 10.8494 3.30172C10.7635 3.30172 10.6937 3.23191 10.6937 3.14598C10.6937 3.06005 10.7635 2.99023 10.8494 2.99023ZM12.7739 4.60499C12.8598 4.60499 12.9296 4.67481 12.9296 4.76074C12.9296 4.84667 12.8598 4.91649 12.7739 4.91649C12.6879 4.91649 12.6181 4.84667 12.6181 4.76074C12.6181 4.67481 12.6879 4.60499 12.7739 4.60499ZM11.1645 5.51621C11.2898 5.51621 11.3918 5.61825 11.3918 5.74356C11.3918 5.86888 11.2898 5.97092 11.1645 5.97092C11.0392 5.97092 10.9389 5.86708 10.9389 5.74177C10.9389 5.61646 11.0392 5.51621 11.1645 5.51621ZM11.0821 4.04645C11.1681 4.04645 11.2379 4.11627 11.2379 4.2022C11.2379 4.28813 11.1681 4.35794 11.0821 4.35794C10.9962 4.35794 10.9264 4.28813 10.9264 4.2022C10.9264 4.11627 10.9962 4.04645 11.0821 4.04645ZM9.88807 4.59067C10.0134 4.59067 10.1154 4.69271 10.1154 4.81803C10.1154 4.94334 10.0134 5.04538 9.88807 5.04538C9.76275 5.04538 9.66071 4.94334 9.66071 4.81803C9.66071 4.69271 9.76275 4.59067 9.88807 4.59067ZM7.16159 5.71134C7.22783 5.71134 7.28332 5.76504 7.28332 5.83307C7.28332 5.89931 7.22962 5.9548 7.16159 5.9548C7.09535 5.9548 7.03985 5.9011 7.03985 5.83307C7.03985 5.76683 7.09535 5.71134 7.16159 5.71134ZM8.13367 5.56096C8.25898 5.56096 8.36102 5.663 8.36102 5.78832C8.36102 5.91363 8.25898 6.01567 8.13367 6.01567C8.00835 6.01567 7.90631 5.91363 7.90631 5.78832C7.9081 5.663 8.00835 5.56096 8.13367 5.56096ZM9.36354 6.01209C9.44947 6.01209 9.51929 6.08191 9.51929 6.16784C9.51929 6.25377 9.44947 6.32359 9.36354 6.32359C9.27761 6.32359 9.20779 6.25377 9.20779 6.16784C9.20779 6.08191 9.27761 6.01209 9.36354 6.01209ZM8.6206 4.44208C8.71727 4.44208 8.79604 4.52085 8.79604 4.61752C8.79604 4.71419 8.71727 4.79296 8.6206 4.79296C8.52393 4.79296 8.44516 4.71419 8.44516 4.61752C8.44337 4.52085 8.52214 4.44208 8.6206 4.44208ZM12.4302 2.92757C12.5053 2.92757 12.5662 2.98844 12.5662 3.06363C12.5662 3.13882 12.5053 3.19968 12.4302 3.19968C12.355 3.19968 12.2941 3.13882 12.2941 3.06363C12.2941 2.98844 12.355 2.92757 12.4302 2.92757ZM12.756 6.12308C12.8222 6.12308 12.8777 6.17679 12.8777 6.24482C12.8777 6.31106 12.824 6.36655 12.756 6.36655C12.6897 6.36655 12.6342 6.31285 12.6342 6.24482C12.6342 6.17679 12.6879 6.12308 12.756 6.12308ZM14.8935 4.23621C14.9597 4.23621 15.0152 4.28992 15.0152 4.35794C15.0152 4.42597 14.9615 4.47968 14.8935 4.47968C14.8254 4.47968 14.7717 4.42597 14.7717 4.35794C14.7717 4.28992 14.8272 4.23621 14.8935 4.23621ZM13.6833 5.37657C13.7871 5.37657 13.8695 5.46071 13.8695 5.56275C13.8695 5.66658 13.7853 5.74893 13.6833 5.74893C13.5795 5.74893 13.4971 5.66479 13.4971 5.56275C13.4953 5.45892 13.5795 5.37657 13.6833 5.37657ZM14.6375 5.17428C14.7467 5.17428 14.8362 5.262 14.8362 5.37299C14.8362 5.48219 14.7485 5.5717 14.6375 5.5717C14.5283 5.5717 14.4388 5.48398 14.4388 5.37299C14.4406 5.26379 14.5283 5.17428 14.6375 5.17428ZM15.8423 5.76325C15.9246 5.76325 15.9909 5.82949 15.9909 5.91184C15.9909 5.99419 15.9246 6.06043 15.8423 6.06043C15.7599 6.06043 15.6937 5.99419 15.6937 5.91184C15.6937 5.83128 15.7599 5.76325 15.8423 5.76325ZM15.6239 4.87889C15.7152 4.87889 15.7886 4.95229 15.7886 5.04359C15.7886 5.13489 15.7152 5.20829 15.6239 5.20829C15.5326 5.20829 15.4592 5.13489 15.4592 5.04359C15.4592 4.95229 15.5326 4.87889 15.6239 4.87889Z" fill="#000"/>
<path d="M7.22783 4.5853C7.19202 4.70882 7.08819 4.8037 6.95392 4.8234C6.51353 5.21008 6.08568 5.60751 5.67751 6.03178C7.54827 6.52767 9.41366 6.84812 11.2719 6.97701C12.7076 7.07726 14.1416 7.06294 15.572 6.93047C16.2308 6.85349 16.9182 6.75324 17.6486 6.62434C17.6987 6.61539 17.7453 6.60644 17.79 6.59749C17.8026 6.57243 17.8061 6.53662 17.799 6.4847C17.7471 6.13562 17.4803 5.88141 17.2046 5.62541L17.1849 5.6093L17.099 5.52874C16.9826 5.41953 16.8627 5.30854 16.7392 5.19755L16.6962 5.19039C16.5476 5.16891 16.4366 5.05075 16.4169 4.90933L16.2916 4.80012C16.0177 4.56203 15.7331 4.32393 15.4377 4.08762L15.2891 3.96768C14.4406 3.28561 12.5161 1.73172 11.7785 1.66906C10.8208 1.58671 9.85226 2.39588 8.92673 3.17104C8.86228 3.22475 8.81036 3.26771 8.61702 3.42704L8.4022 3.60427C8.00477 3.93188 7.61093 4.2559 7.22783 4.5853ZM18.9393 16.8375C18.9196 16.6549 19.0503 16.4919 19.2329 16.4705C19.4155 16.4508 19.5784 16.5815 19.5999 16.7641C19.6447 17.1579 19.6948 17.763 19.6912 18.3036C19.6894 18.7046 19.6554 19.0752 19.5677 19.3133C19.505 19.4852 19.3135 19.5747 19.1416 19.5102C18.9698 19.4476 18.8803 19.256 18.9447 19.0842C19.0056 18.9212 19.0271 18.6294 19.0306 18.3C19.0306 17.7988 18.9805 17.2188 18.9393 16.8375ZM4.08781 17.4318C4.1075 17.2492 4.2722 17.1185 4.4548 17.1382C4.6374 17.1579 4.76809 17.3226 4.74839 17.5052C4.71438 17.8131 4.70543 18.1031 4.72691 18.3734C4.7466 18.633 4.79494 18.8729 4.8755 19.0877C4.93816 19.2596 4.85044 19.4511 4.67858 19.5138C4.50672 19.5765 4.31516 19.4887 4.25251 19.3169C4.15226 19.043 4.09139 18.744 4.06633 18.4254C4.03947 18.1139 4.04842 17.7809 4.08781 17.4318ZM19.813 11.2753C18.9053 11.4865 18.0407 11.6727 17.21 11.8303C16.6121 11.9878 16.0052 12.1149 15.3912 12.2169C14.7216 12.3261 14.0467 12.4013 13.37 12.4425C12.602 12.489 11.8125 12.4908 11.0177 12.4497C8.57943 12.4067 6.33451 11.9484 3.97145 10.9853C3.65816 11.9359 3.40395 12.9849 3.23567 14.1504C3.04591 15.459 2.96356 16.9126 3.01906 18.5364C3.02622 18.7458 3.04591 18.9051 3.06202 19.0251C3.14437 19.6749 3.15153 19.7286 2.32804 19.9506C2.02908 20.0312 1.80888 20.1457 1.71937 20.3409C1.62986 20.5378 1.63881 20.835 1.78382 21.2807C2.08457 21.3022 2.42292 21.2807 2.76664 21.2575C3.23209 21.227 3.7065 21.1966 4.16479 21.261C4.79673 21.3506 5.4788 21.4633 6.18593 21.5797C7.06313 21.7247 7.9815 21.8769 8.88913 21.9986C10.7402 22.2457 12.4266 22.2564 14.1523 22.106C15.8924 21.9539 17.6665 21.637 19.6858 21.2252C19.7091 21.2199 19.7324 21.2181 19.7539 21.2181L22.2691 21.2521C22.3443 20.9119 22.3568 20.6542 22.2978 20.459C22.2351 20.2532 22.0704 20.101 21.7893 19.9739L21.75 19.956C21.2451 19.725 21.0428 19.6337 20.9354 19.3777C20.8656 19.213 20.8763 19.0663 20.8942 18.8228C20.9068 18.6491 20.9265 18.411 20.9175 18.0888C20.8835 16.7533 20.7439 15.2513 20.5093 13.9158L20.5076 13.9051C20.3321 12.8632 20.0958 11.9323 19.813 11.2753ZM11.211 11.7891C12.9994 11.8052 14.906 11.5904 17.056 11.184C17.108 11.1697 17.1599 11.1571 17.2118 11.1428L17.2458 11.1357L20.0314 10.4536C20.316 10.3694 20.5129 10.2065 20.64 9.98455C20.7815 9.73571 20.8477 9.40274 20.8549 9.00889C20.862 8.57208 20.7349 7.88643 20.5201 7.24554C20.3411 6.71564 20.1083 6.22871 19.8488 5.96913C19.8291 5.94943 19.8076 5.92974 19.7861 5.91184C19.4692 6.08907 19.335 6.27346 19.2097 6.44353C19.002 6.72817 18.814 6.98417 18.2555 7.1614C18.132 7.24733 17.9601 7.28672 17.7632 7.31536L17.6343 7.33326C17.568 7.34221 17.4982 7.35116 17.4588 7.35653C16.8663 7.4532 16.2737 7.53018 15.6812 7.58568C15.3357 7.62685 14.9955 7.66087 14.6643 7.68772C13.7012 7.76649 12.7828 7.78797 11.8627 7.75396C10.8011 7.71637 9.32952 7.57494 7.93854 7.32968C6.82682 7.13276 5.75628 6.86781 4.96322 6.52767C4.60339 6.37371 4.32412 6.20722 4.12898 6.02999C4.07528 5.97987 4.02515 5.92974 3.98398 5.87783C3.63489 6.41847 3.16406 7.27597 2.92239 8.08873C2.76127 8.62758 2.70219 9.13421 2.85436 9.4815C2.9743 9.75541 3.40216 10.015 3.92132 10.2441C4.01978 10.2853 4.11824 10.3265 4.21491 10.3659C4.87729 10.6272 5.61664 10.8367 6.0445 10.9566L6.12864 10.9799C7.27437 11.3039 8.49529 11.5402 9.72695 11.6781C10.1781 11.7282 10.631 11.764 11.0821 11.7873L11.211 11.7891ZM20.4216 11.0157C20.726 11.7264 20.9766 12.7075 21.1663 13.7905L21.1681 13.8031C21.4062 15.1636 21.5494 16.7014 21.5835 18.0763C21.5924 18.4468 21.5745 18.6939 21.5602 18.8747C21.5495 19.0179 21.5423 19.1056 21.5494 19.12C21.5584 19.1397 21.6927 19.2005 22.0292 19.3545L22.0686 19.3724C22.5323 19.5836 22.8115 19.8647 22.9351 20.2693C23.0479 20.6398 23.0103 21.091 22.8491 21.6782C22.8098 21.8196 22.6791 21.9234 22.5251 21.9216L19.7825 21.884C17.7435 22.2976 15.9551 22.618 14.2114 22.7702C12.4445 22.9259 10.7134 22.9116 8.805 22.6574C7.8723 22.5339 6.95571 22.3817 6.08031 22.2367C5.38213 22.1203 4.70901 22.0093 4.07349 21.9198C3.68322 21.8643 3.24104 21.893 2.80781 21.9216C2.35131 21.9521 1.90376 21.9807 1.49201 21.918C1.37565 21.9001 1.27361 21.8232 1.22885 21.705C0.953163 20.9692 0.940632 20.4483 1.11607 20.067C1.30225 19.657 1.67462 19.4386 2.15439 19.3097C2.41934 19.2381 2.41755 19.2292 2.40144 19.1092C2.38354 18.9732 2.36205 18.7959 2.3531 18.5578C2.29582 16.8894 2.38175 15.3981 2.57509 14.0573C2.75411 12.8202 3.02622 11.7085 3.36278 10.7006C2.83467 10.4321 2.39965 10.1134 2.23853 9.75004C2.01296 9.23804 2.07562 8.57387 2.27791 7.89897C2.54823 6.99133 3.07276 6.04611 3.44871 5.47324C3.64384 5.17428 3.87656 4.90575 4.17553 4.69987C4.47807 4.49221 4.8379 4.35615 5.28008 4.33288C5.52892 4.30066 5.80103 4.27022 6.07135 4.24337C6.26291 4.22368 6.47057 4.20399 6.67465 4.18608C7.09893 3.81909 7.53395 3.45926 7.97613 3.09585L8.19096 2.91862L8.49529 2.66441C9.52466 1.80332 10.6006 0.902852 11.8304 1.00847C12.7685 1.08903 14.804 2.73065 15.6991 3.45389L15.8477 3.57384C16.143 3.81193 16.4348 4.0554 16.7195 4.30245C16.8215 4.39017 16.9236 4.48147 17.0256 4.57277C17.5555 4.65512 18.1427 4.74463 18.6744 4.84846L18.8606 4.88426C19.249 4.95945 19.5928 5.02748 19.906 5.19755C19.9741 5.21366 20.0367 5.25305 20.0833 5.30854C20.162 5.36404 20.239 5.43028 20.3142 5.50546C20.649 5.84202 20.9354 6.42205 21.1431 7.03788C21.3794 7.74501 21.5208 8.51659 21.5119 9.02142C21.5029 9.52447 21.4116 9.96307 21.2129 10.3139C21.0375 10.6254 20.7779 10.8653 20.4216 11.0157ZM4.42616 5.34256C4.44764 5.40342 4.49777 5.46966 4.57295 5.53948C4.67142 5.62899 4.80747 5.7185 4.97754 5.80622C5.26039 5.50188 5.5504 5.21187 5.84758 4.9326C5.67572 4.9505 5.50923 4.97019 5.35527 4.99168L5.33021 4.99347C5.01334 5.00958 4.76272 5.10267 4.55505 5.24588C4.5103 5.27453 4.46733 5.30675 4.42616 5.34256ZM18.4434 6.32001C18.5401 6.23766 18.6064 6.14815 18.6744 6.05327C18.78 5.90826 18.8928 5.7543 19.07 5.60034C18.9644 5.57707 18.8552 5.55559 18.7406 5.53232L18.5562 5.49472C18.3504 5.45534 18.1302 5.41595 17.9064 5.37836C18.1534 5.63436 18.3665 5.91542 18.4434 6.32001ZM14.8577 6.20901C14.949 6.20901 15.0224 6.28241 15.0224 6.37371C15.0224 6.46501 14.949 6.53841 14.8577 6.53841C14.7664 6.53841 14.693 6.46501 14.693 6.37371C14.693 6.28241 14.7664 6.20901 14.8577 6.20901ZM10.8494 2.99023C10.9353 2.99023 11.0052 3.06005 11.0052 3.14598C11.0052 3.23191 10.9353 3.30172 10.8494 3.30172C10.7635 3.30172 10.6937 3.23191 10.6937 3.14598C10.6937 3.06005 10.7635 2.99023 10.8494 2.99023ZM12.7739 4.60499C12.8598 4.60499 12.9296 4.67481 12.9296 4.76074C12.9296 4.84667 12.8598 4.91649 12.7739 4.91649C12.6879 4.91649 12.6181 4.84667 12.6181 4.76074C12.6181 4.67481 12.6879 4.60499 12.7739 4.60499ZM11.1645 5.51621C11.2898 5.51621 11.3918 5.61825 11.3918 5.74356C11.3918 5.86888 11.2898 5.97092 11.1645 5.97092C11.0392 5.97092 10.9389 5.86708 10.9389 5.74177C10.9389 5.61646 11.0392 5.51621 11.1645 5.51621ZM11.0821 4.04645C11.1681 4.04645 11.2379 4.11627 11.2379 4.2022C11.2379 4.28813 11.1681 4.35794 11.0821 4.35794C10.9962 4.35794 10.9264 4.28813 10.9264 4.2022C10.9264 4.11627 10.9962 4.04645 11.0821 4.04645ZM9.88807 4.59067C10.0134 4.59067 10.1154 4.69271 10.1154 4.81803C10.1154 4.94334 10.0134 5.04538 9.88807 5.04538C9.76275 5.04538 9.66071 4.94334 9.66071 4.81803C9.66071 4.69271 9.76275 4.59067 9.88807 4.59067ZM7.16159 5.71134C7.22783 5.71134 7.28332 5.76504 7.28332 5.83307C7.28332 5.89931 7.22962 5.9548 7.16159 5.9548C7.09535 5.9548 7.03985 5.9011 7.03985 5.83307C7.03985 5.76683 7.09535 5.71134 7.16159 5.71134ZM8.13367 5.56096C8.25898 5.56096 8.36102 5.663 8.36102 5.78832C8.36102 5.91363 8.25898 6.01567 8.13367 6.01567C8.00835 6.01567 7.90631 5.91363 7.90631 5.78832C7.9081 5.663 8.00835 5.56096 8.13367 5.56096ZM9.36354 6.01209C9.44947 6.01209 9.51929 6.08191 9.51929 6.16784C9.51929 6.25377 9.44947 6.32359 9.36354 6.32359C9.27761 6.32359 9.20779 6.25377 9.20779 6.16784C9.20779 6.08191 9.27761 6.01209 9.36354 6.01209ZM8.6206 4.44208C8.71727 4.44208 8.79604 4.52085 8.79604 4.61752C8.79604 4.71419 8.71727 4.79296 8.6206 4.79296C8.52393 4.79296 8.44516 4.71419 8.44516 4.61752C8.44337 4.52085 8.52214 4.44208 8.6206 4.44208ZM12.4302 2.92757C12.5053 2.92757 12.5662 2.98844 12.5662 3.06363C12.5662 3.13882 12.5053 3.19968 12.4302 3.19968C12.355 3.19968 12.2941 3.13882 12.2941 3.06363C12.2941 2.98844 12.355 2.92757 12.4302 2.92757ZM12.756 6.12308C12.8222 6.12308 12.8777 6.17679 12.8777 6.24482C12.8777 6.31106 12.824 6.36655 12.756 6.36655C12.6897 6.36655 12.6342 6.31285 12.6342 6.24482C12.6342 6.17679 12.6879 6.12308 12.756 6.12308ZM14.8935 4.23621C14.9597 4.23621 15.0152 4.28992 15.0152 4.35794C15.0152 4.42597 14.9615 4.47968 14.8935 4.47968C14.8254 4.47968 14.7717 4.42597 14.7717 4.35794C14.7717 4.28992 14.8272 4.23621 14.8935 4.23621ZM13.6833 5.37657C13.7871 5.37657 13.8695 5.46071 13.8695 5.56275C13.8695 5.66658 13.7853 5.74893 13.6833 5.74893C13.5795 5.74893 13.4971 5.66479 13.4971 5.56275C13.4953 5.45892 13.5795 5.37657 13.6833 5.37657ZM14.6375 5.17428C14.7467 5.17428 14.8362 5.262 14.8362 5.37299C14.8362 5.48219 14.7485 5.5717 14.6375 5.5717C14.5283 5.5717 14.4388 5.48398 14.4388 5.37299C14.4406 5.26379 14.5283 5.17428 14.6375 5.17428ZM15.8423 5.76325C15.9246 5.76325 15.9909 5.82949 15.9909 5.91184C15.9909 5.99419 15.9246 6.06043 15.8423 6.06043C15.7599 6.06043 15.6937 5.99419 15.6937 5.91184C15.6937 5.83128 15.7599 5.76325 15.8423 5.76325ZM15.6239 4.87889C15.7152 4.87889 15.7886 4.95229 15.7886 5.04359C15.7886 5.13489 15.7152 5.20829 15.6239 5.20829C15.5326 5.20829 15.4592 5.13489 15.4592 5.04359C15.4592 4.95229 15.5326 4.87889 15.6239 4.87889Z" stroke="#1B1B1B" stroke-width="0.96" mask="url(#path-1-outside-1_3918_1588)"/>
</svg>
